<?xml version="1.0" encoding="utf-8"?>
<!-- Generator: Adobe Illustrator 17.1.0, SVG Export Plug-In . SVG Version: 6.00 Build 0)  -->
<!DOCTYPE svg PUBLIC "-//W3C//DTD SVG 1.1//EN" "http://www.w3.org/Graphics/SVG/1.1/DTD/svg11.dtd">
<svg version="1.1" xmlns="http://www.w3.org/2000/svg" xmlns:xlink="http://www.w3.org/1999/xlink" x="0px" y="0px"
	 viewBox="0 0 259 400" style="enable-background:new 0 0 259 400;" xml:space="preserve">
<g id="Layer_1">
	<rect style="fill:#8ED8F8;" width="259" height="400"/>
</g>
<g id="Octopus">
	<g id="Body">
		<path id="Body_1_" style="fill:#1085C7;" d="M182.008728,198.9749603
			c20.7208557-2.4477234,37.969635-23.7068787,29.2412109-46.4359589
			c-11.8167725-30.7711563-46.1036224-25.1347733-60.4582977-5.1877441
			c-5.9049377,8.2046051-4.9084167,26.0504456-4.9084167,26.0504456s-8.4142609-9.6398773-15.8123932-17.9283905
			c-11.9901962-13.4337921-15.0628815-39.9344025-8.6025009-52.0291901
			c10.2985153-19.2800674,18.0086746-21.7263641,26.4928665-20.1683197c0.8155212,0.149765,5.87117-1.2050323,4.115097-2.6421585
			c-1.7569122-1.4371719-3.7624207-1.6427917-3.7624207-1.6427917c-7.7355652-1.5702896-13.2816315,0.7821121-15.3947754,1.6449203
			c-3.9495239,1.6126022-12.4518509,4.9385681-19.1143188,16.1585999
			c-7.4669418,12.5727844-10.2922211,20.9934692-9.7773361,36.8847961
			c0.4048157,12.4914093,2.5830078,23.5505829,13.061882,35.0009003c0.8023453,0.876297,1.6532516,1.7550354,2.5555725,2.6371307
			c2.0544891,2.0081482,0.1035156,1.3161926-1.2057953,0.4525757c-19.638176-12.9525452-34.7076111-5.886795-40.3214264,0.2719269
			c-12.8244858,14.0700684-11.5484848,23.9243011,0,41.8704376c7.6769485,11.9300842,9.9885254,17.4711609,3.3529358,24.9091797
			c-5.6783142,6.3644257-17.4838371,2.3948517-17.1941681-3.0411835c0.1448822-2.7138977,4.3965225-4.6199341,5.374115-1.7238922
			c1.1702728,3.4662628,4.3516235,0.6542816,3.1161804-1.4088898c-5.8795929-9.8209686-18.4802628,0.5333099-10.995945,9.8983612
			c5.5827217,6.984726,24.4286461,7.0995026,32.6328926-5.1611633c11.3789368-17.0051575-19.4180756-38.0895081-6.705925-49.233139
			c12.269043-10.7540741,27.8967743,2.5827789,32.5713348,4.9617004c4.3204346,2.1981812,10.8611984,4.3693085,1.6438828,10.7073517
			c-15.3742676,10.5710754-10.3231354,29.3432312-10.3513794,43.6203613
			c-0.040741,20.8371887-18.744133,18.9725647-29.6470642,14.3877258c1.5169678-3.4308777,3.8079453-6.3366852,5.0062332-7.6112366
			c2.9640503-3.1519775,1.9349976-3.6574554,1.0398712-3.7139435c-0.9457779-0.0593872-5.96138,3.6193848-7.3836594,5.3426056
			c-0.8753052,1.0606995-1.8888779,2.530365-2.8294067,4.2781677c-16.4161263-6.2085419-21.7174606-1.2325134-23.6986275-0.4744263
			c-4.4681702,1.7087097-9.8995399,6.046875,1.4736977,2.7993164c7.5020638-2.1427002,13.2058105,0.5473328,19.7764053,3.8482666
			c-2.1446533,8.3178406-0.0617371,18.719696,17.9205627,24.0198059
			c21.5957108,5.9404602,45.5319138,1.7782593,63.5660324-21.5746155
			c8.3026886-10.7511902,13.5638733-25.9570313,12.1002655-38.9853821c-0.8537445-7.598053-1.782196-12.4091187,0.4700012-11.813797
			c2.3173676,0.6122894,14.3676605,5.6398315,17.3686981,13.6630402
			c6.9158783,18.4914856-1.347702,22.9092712-19.2391968,34.4030457c-4.008728,2.5751343-5.9701233,8.7559204-5.7254791,12.8197327
			c-1.026474-0.8640747-2.1748352-1.4935608-2.9841919-1.3201904c-1.6765137,0.3596191-3.0987549,4.3287659-2.5933228,6.3424377
			c0.5923767,2.3604126,1.1586761,6.2687988,6.9455719,6.1528931c5.9882202-0.1201782,8.6990204-3.6652832,8.1368866-6.1528931
			c-0.6475677-2.8657227-2.7236176-10.4419861,5.2531433-13.4755554
			c29.795517-11.3329773,32.2396088-26.7800598,27.6128845-44.2957153
			C201.4036102,215.7515869,188.9956207,203.5716705,182.008728,198.9749603z M121.0685425,278.0372925
			c-17.6988754,5.594635-31.1337967,2.2228088-37.1183929-2.6563416c-2.3375931-1.9060669-3.334877-4.1917419-3.5025253-6.5560913
			c6.5261002,3.0411377,14.3192749,5.7154236,25.3994522,4.8431091c24.1136322-1.898468,22.939743-25.5952911,22.4226837-40.5025177
			c-0.4685516-13.5366669,7.4481964-16.0534973,12.2161713-17.3577423
			c10.0790863-2.7565765,10.131958,11.4307251,10.1912842,17.4877777
			C150.7858429,244.3409424,145.7057495,270.2505798,121.0685425,278.0372925z"/>
	</g>
	<g id="Shadow">
		<g id="Shadow_1_1_">
			<defs>
				<path id="SVGID_1_" d="M182.008728,198.9749603c20.7208557-2.4477234,37.969635-23.7068787,29.2412109-46.4359589
					c-11.8167725-30.7711563-46.1036224-25.1347733-60.4582977-5.1877441
					c-5.9049377,8.2046051-4.9084167,26.0504456-4.9084167,26.0504456s-8.4142609-9.6398773-15.8123932-17.9283905
					c-11.9901962-13.4337921-15.0628815-39.9344025-8.6025009-52.0291901
					c10.2985153-19.2800674,18.0086746-21.7263641,26.4928665-20.1683197c0.8155212,0.149765,5.87117-1.2050323,4.115097-2.6421585
					c-1.7569122-1.4371719-3.7624207-1.6427917-3.7624207-1.6427917
					c-7.7355652-1.5702896-13.2816315,0.7821121-15.3947754,1.6449203
					c-3.9495239,1.6126022-12.4518509,4.9385681-19.1143188,16.1585999
					c-7.4669418,12.5727844-10.2922211,20.9934692-9.7773361,36.8847961
					c0.4048157,12.4914093,2.5830078,23.5505829,13.061882,35.0009003c0.8023453,0.876297,1.6532516,1.7550354,2.5555725,2.6371307
					c2.0544891,2.0081482,0.1035156,1.3161926-1.2057953,0.4525757c-19.638176-12.9525452-34.7076111-5.886795-40.3214264,0.2719269
					c-12.8244858,14.0700684-11.5484848,23.9243011,0,41.8704376c7.6769485,11.9300842,9.9885254,17.4711609,3.3529358,24.9091797
					c-5.6783142,6.3644257-17.4838371,2.3948517-17.1941681-3.0411835c0.1448822-2.7138977,4.3965225-4.6199341,5.374115-1.7238922
					c1.1702728,3.4662628,4.3516235,0.6542816,3.1161804-1.4088898c-5.8795929-9.8209686-18.4802628,0.5333099-10.995945,9.8983612
					c5.5827217,6.984726,24.4286461,7.0995026,32.6328926-5.1611633
					c11.3789368-17.0051575-19.4180756-38.0895081-6.705925-49.233139
					c12.269043-10.7540741,27.8967743,2.5827789,32.5713348,4.9617004
					c4.3204346,2.1981812,10.8611984,4.3693085,1.6438828,10.7073517
					c-15.3742676,10.5710754-10.3231354,29.3432312-10.3513794,43.6203613
					c-0.040741,20.8371887-18.744133,18.9725647-29.6470642,14.3877258
					c1.5169678-3.4308777,3.8079453-6.3366852,5.0062332-7.6112366c2.9640503-3.1519775,1.9349976-3.6574554,1.0398712-3.7139435
					c-0.9457779-0.0593872-5.96138,3.6193848-7.3836594,5.3426056c-0.8753052,1.0606995-1.8888779,2.530365-2.8294067,4.2781677
					c-16.4161263-6.2085419-21.7174606-1.2325134-23.6986275-0.4744263
					c-4.4681702,1.7087097-9.8995399,6.046875,1.4736977,2.7993164c7.5020638-2.1427002,13.2058105,0.5473328,19.7764053,3.8482666
					c-2.1446533,8.3178406-0.0617371,18.719696,17.9205627,24.0198059
					c21.5957108,5.9404602,45.5319138,1.7782593,63.5660324-21.5746155
					c8.3026886-10.7511902,13.5638733-25.9570313,12.1002655-38.9853821
					c-0.8537445-7.598053-1.782196-12.4091187,0.4700012-11.813797c2.3173676,0.6122894,14.3676605,5.6398315,17.3686981,13.6630402
					c6.9158783,18.4914856-1.347702,22.9092712-19.2391968,34.4030457
					c-4.008728,2.5751343-5.9701233,8.7559204-5.7254791,12.8197327c-1.026474-0.8640747-2.1748352-1.4935608-2.9841919-1.3201904
					c-1.6765137,0.3596191-3.0987549,4.3287659-2.5933228,6.3424377c0.5923767,2.3604126,1.1586761,6.2687988,6.9455719,6.1528931
					c5.9882202-0.1201782,8.6990204-3.6652832,8.1368866-6.1528931c-0.6475677-2.8657227-2.7236176-10.4419861,5.2531433-13.4755554
					c29.795517-11.3329773,32.2396088-26.7800598,27.6128845-44.2957153
					C201.4036102,215.7515869,188.9956207,203.5716705,182.008728,198.9749603z M121.0685425,278.0372925
					c-17.6988754,5.594635-31.1337967,2.2228088-37.1183929-2.6563416c-2.3375931-1.9060669-3.334877-4.1917419-3.5025253-6.5560913
					c6.5261002,3.0411377,14.3192749,5.7154236,25.3994522,4.8431091
					c24.1136322-1.898468,22.939743-25.5952911,22.4226837-40.5025177
					c-0.4685516-13.5366669,7.4481964-16.0534973,12.2161713-17.3577423
					c10.0790863-2.7565765,10.131958,11.4307251,10.1912842,17.4877777
					C150.7858429,244.3409424,145.7057495,270.2505798,121.0685425,278.0372925z"/>
			</defs>
			<clipPath id="SVGID_2_">
				<use xlink:href="#SVGID_1_"  style="overflow:visible;"/>
			</clipPath>
			<path style="clip-path:url(#SVGID_2_);fill:#0479B1;" d="M182.008728,198.9749603c0,0-10.0951233,1.7034607-6.6158295,2.4534302
				c14.4093933,3.1059723,24.4293976,10.4929504,24.4293976,10.4929504S187.3755646,200.201828,182.008728,198.9749603z"/>
			<path style="clip-path:url(#SVGID_2_);fill:#0479B1;" d="M207.2964172,143.0651093
				c-17.6091003-2.0993347-28.2479858,4.1249084-36.6347046,11.6512756
				c-14.0547943,12.6115723-20.3899078,42.6637573-20.8026581,34.7184906
				c-1.400589-26.9368134-20.6484222-28.1063995-15.5878906-37.3551788
				c4.7520294-8.6843719,13.9758911-19.879425,41.2150421-24.0311127
				C202.7253723,123.8972778,207.2964172,143.0651093,207.2964172,143.0651093"/>
		</g>
		<g id="Shadow_2_1_">
			<defs>
				<path id="SVGID_3_" d="M182.0086823,198.9749451c20.7208405-2.4476776,37.9696808-23.7068634,29.2412567-46.4359436
					c-11.8167725-30.7711563-46.1036072-25.1347733-60.4583588-5.1877136
					c-5.9048157,8.2045593-4.9083557,26.0504456-4.9083557,26.0504456s-8.4143066-9.6399231-15.8124847-17.9284515
					c-11.9900818-13.4337921-15.062767-39.9343719-8.6023407-52.0291748
					c10.2984619-19.2800674,18.008606-21.7263489,26.4927521-20.1683197
					c0.8155365,0.1497803,5.8712158-1.2050247,4.1151428-2.6421509c-1.7568359-1.4371338-3.7624359-1.6427612-3.7624359-1.6427612
					c-7.7355499-1.5702591-13.2816162,0.782074-15.3947144,1.644928
					c-3.9495544,1.6125488-12.4518433,4.9385681-19.1144104,16.1585922
					c-7.4668732,12.572731-10.2921906,20.993454-9.7773132,36.8847733
					c0.4048233,12.4914093,2.5829773,23.5505676,13.0618973,35.0009155
					c0.8023605,0.8762512,1.6532135,1.7550659,2.5556412,2.6371307c2.05439,2.0081482,0.1034698,1.3161469-1.2058716,0.4525299
					c-19.6381149-12.9524689-34.70755-5.8867798-40.3213959,0.2719879c-12.8245163,14.0700378-11.5484772,23.9242706,0,41.8704376
					c7.676918,11.930069,9.9885178,17.4711151,3.3528976,24.9091644c-5.6782837,6.3643951-17.4838104,2.3947906-17.1941528-3.041153
					c0.1449051-2.7139435,4.3965073-4.6199493,5.3741379-1.7239227c1.1702499,3.4662781,4.351593,0.6542816,3.1161346-1.4088745
					c-5.87957-9.8209839-18.4802589,0.5333099-10.9959602,9.8983765c5.5827904,6.9846802,24.4286842,7.0994568,32.6329384-5.1611633
					c11.3789444-17.0051727-19.4180832-38.0895691-6.7059402-49.233139
					c12.2690582-10.7540894,27.8968201,2.5827484,32.5712891,4.9616547
					c4.3205338,2.1982117,10.8611984,4.3693237,1.6439209,10.7073822
					c-15.3742752,10.5710754-10.3230896,29.3431702-10.3513641,43.6203003
					c-0.0346146,17.6928406-13.5237198,19.0174561-24.2686691,16.2079163v7.9181824
					c5.1028366,1.6631165,11.0799942,2.6894531,18.5541458,2.1011047
					c24.1137009-1.8984985,22.9397354-25.5953674,22.4226913-40.5025482
					c-0.4685669-13.5366669,7.4482117-16.0534973,12.2162323-17.3577271
					c10.0789795-2.7566223,10.131958,11.4306793,10.1912842,17.4877625
					c0.1085815,11.0454407-4.9715729,36.9550934-29.6088181,44.7418365
					c-17.6988068,5.594635-31.1336975,2.2227478-37.1182861-2.6563416c-2.3376236-1.9060669-3.3349228-4.191803-3.5025253-6.5561523
					c0.1041718-4.1852417,1.4668732-6.9963074,1.4668732-6.9963074c1.516983-3.4308777,3.8079834-6.3366547,5.0062637-7.6112213
					c2.9640274-3.1519928,1.934967-3.6574249,1.0399017-3.7138824c-0.9458008-0.0594025-5.9614334,3.6193237-7.3836975,5.3425446
					c-0.8753204,1.0607452-1.8888855,2.5303802-2.829422,4.2781525c0,0-1.6105347,2.4667358-2.4485245,6.1731873
					c-2.1446228,8.3178101-0.0617294,18.7197266,17.9205399,24.0198364
					c21.5956955,5.9404297,45.5318832,1.7781982,63.5660324-21.574646
					c8.3027802-10.7512207,13.5638428-25.9570313,12.1003876-38.9853973
					c-0.8537903-7.5980682-1.7822418-12.4090881,0.4699554-11.8138123
					c2.3172455,0.6123047,14.3675995,5.6398621,17.3685608,13.6630554
					c6.9159851,18.4914856-1.3475952,22.9092865-19.23909,34.4029999c-4.008728,2.5751648-5.9701843,8.756012-5.7254486,12.8197937
					c-1.0265045-0.8640747-2.1749115-1.4935913-2.9842377-1.3201599c-1.6764526,0.3595886-3.0987091,4.3287354-2.5932922,6.3423767
					c0.5923309,2.3604126,1.1586304,6.2688293,6.9455719,6.1528931c5.9881439-0.1202087,8.6990051-3.6652527,8.1368713-6.1528931
					c-0.6476135-2.8656616-2.7236938-10.4419556,5.2531738-13.4755249
					c29.7954559-11.3329468,32.2395782-26.7800293,27.6128082-44.2957458
					C201.4036102,215.7515717,188.9956207,203.5716553,182.0086823,198.9749451z"/>
			</defs>
			<clipPath id="SVGID_4_">
				<use xlink:href="#SVGID_3_"  style="overflow:visible;"/>
			</clipPath>
			<path style="opacity:0.3;clip-path:url(#SVGID_4_);fill:#053957;" d="M168.4236298,219.8226166
				c0.3664093-9.9972992,33.4613342,8.3942719,21.4855652,29.6473541
				c-8.0854187,14.3495789-24.2504578,14.6729736-27.039978,21.6185303
				c-5.6601563,14.0892029-6.4908447-1.068512,2.7895203-9.7955933
				c4.4080353-4.1451416,13.9519501-11.0165558,12.5151825-22.4056854
				C176.7364807,227.4984589,168.1709137,226.7221985,168.4236298,219.8226166"/>
			<path style="opacity:0.3;clip-path:url(#SVGID_4_);fill:#053957;" d="M131.8635101,272.2134399
				c-18.7957764,18.1613159-45.1257401,17.4475403-54.7444077,7.4763489
				c-9.6697083-10.0240784,5.2915878-30.8615112,11.950325-29.9316711c4.1828995,0.5844269,0.1773376,1.1009064-2.6885376,5.7611694
				c-3.9859238,6.4815979-10.608017,16.771637,0.4682465,19.7067261
				c16.6104202,4.4007568,46.0453796-4.7573547,46.0453796-4.7573547"/>
			<path style="opacity:0.3;clip-path:url(#SVGID_4_);fill:#053957;" d="M123.1624374,191.9448242
				c-19.617218-19.2000885-52.5701447-7.8906097-39.7029495,14.0114136
				c14.274971,24.2982941,13.9360733,42.5920563-9.6351929,44.4282227
				c-29.458046,2.2949066,15.4880066-0.159729,21.235733-3.9916382c5.7485504-3.8323669,5.4414749-31.8746338,5.4414749-31.8746338
				s-21.2487946-20.3377991-5.9201508-21.7749329c15.32798-1.4371338,1.5244217,4.5246887,12.2639465,8.9442902
				C117.5870438,206.1082611,133.5124207,202.0742645,123.1624374,191.9448242"/>
			<path style="opacity:0.3;clip-path:url(#SVGID_4_);fill:#053957;" d="M143.6127167,215.2824402
				c-6.6971588-2.2623444-26.7372818-5.1673889-19.8938217,36.5017242
				c5.0308609,30.6344452-31.5748215,22.1362762-37.6420135,22.1362762c0,0,3.2718201,4.9349365,14.5958405,4.089386
				c11.3253479-0.8443298,29.2820663-4.1976318,34.1948776-21.9211426
				C139.780426,238.3651733,157.0997772,219.8389435,143.6127167,215.2824402"/>
			<path style="opacity:0.3;clip-path:url(#SVGID_4_);fill:#053957;" d="M125.6446152,75.7843628
				c-29.6992722,37.8418655-22.0874176,70.0424042-4.3117828,91.6981659
				c5.8245544,7.0955048,0.572113,6.8615417-3.4999237,3.6563873c-9.370163-7.3768463-27.1566238-41.2263184-27.1566238-41.2263184
				L125.6446152,75.7843628z"/>
		</g>
	</g>
	<g id="Flashlight">
		<path id="Hand_Overlay" style="fill:#1085C7;" d="M165.0932007,285.378418
			c-0.7930756-4.0050049-2.7717896-6.1572266-3.3332214-6.5492859c-1.0265045-0.8640747-2.1749115-1.4935913-2.9842377-1.3201599
			c-1.6764526,0.3595886-3.0987091,4.3287354-2.5932922,6.3423767c0.5923309,2.3604126,1.1586304,6.2688293,6.9455719,6.1528931
			C169.1161652,289.8840332,165.4040375,286.9481506,165.0932007,285.378418z"/>
	</g>
	<g id="Buttons">
		<g id="_x31_7_1_">
			<g>
				<path style="fill:#1B6588;" d="M127.1842117,248.5607605c-0.9775925,0.1238403-1.7727509-2.4785004-1.1904907-4.585495
					c0.6010284-2.1739502,2.0696793-1.3755798,2.1189194-1.2350616c0.1962128,0.5692291-1.46138,1.5244141-1.2875595,2.8279266
					C126.9988251,246.8723907,127.5890274,248.5093689,127.1842117,248.5607605"/>
				<path style="fill:#57AEDA;" d="M127.5036011,242.7992401c-0.8451538,0.2447815-0.9776688,1.4429169-1.1362152,2.5939636
					c-0.246933,1.7890778-0.0268402,3.6675873,1.4454422,3.2414093c0.9450455-0.2736969,0.8754807-1.555481,0.9617233-2.8560944
					C128.8845978,244.1063843,128.8650208,242.4048767,127.5036011,242.7992401"/>
				<path style="fill:#266785;" d="M128.1017456,247.6751251c-0.8277283-1.5323639-0.671257-3.888504-0.1665573-4.2820587
					c0.5047836-0.3939819,0.7365189,0.8154297,0.6677017,2.0287628
					C128.5340729,246.6355286,128.5992584,248.5973206,128.1017456,247.6751251"/>
			</g>
			<g>
				<defs>
					<path id="SVGID_5_" d="M127.5036011,242.7992401c-0.8458176,0.2447815-0.9776688,1.4429169-1.1362152,2.5939636
						c-0.246933,1.7890778-0.0268402,3.6675873,1.4461899,3.2414093c0.9435501-0.2733307,0.874733-1.5551147,0.9602432-2.8554382
						c0.099884-1.5073547,0.0934296-3.0375519-0.9038162-3.0378571
						C127.7607117,242.7413177,127.6382675,242.7600861,127.5036011,242.7992401"/>
				</defs>
				<clipPath id="SVGID_6_">
					<use xlink:href="#SVGID_5_"  style="overflow:visible;"/>
				</clipPath>
				<path style="clip-path:url(#SVGID_6_);fill:#4295BF;" d="M127.4014893,248.4137878
					c-1.1854401-1.3582458-0.5873108-4.7785187-0.2230606-5.4498596c0.3650055-0.6712494-0.8494492-0.1921997-1.308548,2.1906433
					c-0.6076355,3.1505737,1.4033966,4.0669861,1.8639755,3.9558258
					C128.1937866,248.9981995,127.6353912,248.6817017,127.4014893,248.4137878"/>
			</g>
		</g>
		<g id="_x31_6_1_">
			<g>
				<path style="fill:#1B6588;" d="M127.9772415,229.3874359c-1.1738815-0.0054169-1.8582764-3.2196808-0.9552078-5.6300507
					c0.9312515-2.4886627,2.5961914-1.3118744,2.6403198-1.1373138c0.1759644,0.7060242-1.8886032,1.5826263-1.8125916,3.1577606
					C127.9265137,227.3529053,128.4624329,229.3892975,127.9772415,229.3874359"/>
				<path style="fill:#57AEDA;" d="M128.9331055,222.5954437c-1.0283203,0.1589203-1.3056641,1.5606079-1.609108,2.9031982
					c-0.4721527,2.0867462-0.399765,4.3512268,1.3925858,4.0741882c1.1485748-0.1777496,1.1941833-1.7104797,1.4266663-3.2420807
					C130.4423218,224.3620605,130.5892944,222.3387146,128.9331055,222.5954437"/>
				<path style="fill:#266785;" d="M129.1547546,228.4786682c-0.8292084-1.948822-0.4077148-4.7223816,0.2317352-5.1116333
					c0.6394501-0.388504,0.7922058,1.0826721,0.5894623,2.5135803
					C129.7724762,227.3112335,129.6536713,229.6514282,129.1547546,228.4786682"/>
			</g>
			<g>
				<defs>
					<path id="SVGID_7_" d="M128.9331055,222.5947113c-1.0283203,0.1596527-1.3056641,1.5613403-1.609108,2.9046783
						c-0.4721527,2.0859985-0.399765,4.3504791,1.3918991,4.0738068c1.1492615-0.1781158,1.1956177-1.7112122,1.4273529-3.2424469
						c0.2816467-1.855011,0.4286957-3.7574005-0.9400024-3.7581482
						C129.1184998,222.5726013,129.0294342,222.5798798,128.9331055,222.5947113"/>
				</defs>
				<clipPath id="SVGID_8_">
					<use xlink:href="#SVGID_7_"  style="overflow:visible;"/>
				</clipPath>
				<path style="clip-path:url(#SVGID_8_);fill:#4295BF;" d="M128.2487946,229.2466125
					c-1.271698-1.7973785-0.2180176-5.7658997,0.281723-6.5063324c0.5003967-0.7401581-0.9899826-0.3607025-1.7742538,2.3973694
					c-1.0363159,3.6472778,1.2600479,5.0478516,1.818367,4.9874115
					C129.1322784,230.0649261,128.5000458,229.6010895,128.2487946,229.2466125"/>
			</g>
		</g>
		<g id="_x31_5_1_">
			<g>
				<path style="fill:#1B6588;" d="M87.6905365,280.0150146c-0.4554672,1.1376953-3.2210999,0.8085022-4.7505646-0.8110657
					c-1.5794449-1.6721191-0.0232086-2.9242554,0.1296234-2.9126587c0.6177216,0.0470886,0.5061951,2.3202515,1.7618637,2.7326965
					C86.0872116,279.4363708,87.8788147,279.5439758,87.6905365,280.0150146"/>
				<path style="fill:#57AEDA;" d="M82.769783,276.9912415c-0.271553,1.0463867,0.7133179,1.7481384,1.6416626,2.457428
					c1.4432907,1.1018982,3.2348938,1.7304382,3.7077789-0.0937195c0.3034439-1.1688538-0.8725891-1.6873474-1.974762-2.385437
					C84.7264557,276.0726013,83.2071533,275.3046265,82.769783,276.9912415"/>
				<path style="fill:#266785;" d="M87.4363403,278.5912781c-1.8364792,0.203125-3.833786-1.061615-3.8909531-1.8017578
					c-0.0565109-0.7394104,1.1477737-0.4344788,2.1833572,0.2038574
					C86.764328,277.6324463,88.5407257,278.4696045,87.4363403,278.5912781"/>
			</g>
			<g>
				<defs>
					<path id="SVGID_9_" d="M82.769783,276.9912415c-0.271553,1.0467834,0.7133179,1.7481384,1.6424026,2.457428
						c1.4425507,1.1018982,3.2341537,1.7301331,3.7070389-0.0937195c0.3034439-1.1695862-0.8725891-1.6877136-1.974762-2.385437
						c-0.8053284-0.5094604-1.6438828-0.9772949-2.2971191-0.9772949
						C83.3498306,275.992218,82.9594727,276.2627258,82.769783,276.9912415"/>
				</defs>
				<clipPath id="SVGID_10_">
					<use xlink:href="#SVGID_9_"  style="overflow:visible;"/>
				</clipPath>
				<path style="clip-path:url(#SVGID_10_);fill:#4295BF;" d="M87.6855011,279.7072449
					c-1.8879395,0.679657-4.5731812-1.5671082-4.9570236-2.2811584c-0.3838272-0.7140503-0.661911,0.849823,1.1840439,2.4618225
					c2.4404678,2.1312866,4.414566,0.3345947,4.5818558-0.2248535
					C88.6624146,279.1032715,88.0584183,279.5732727,87.6855011,279.7072449"/>
			</g>
		</g>
		<g id="_x31_4_1_">
			<g>
				<path style="fill:#1B6588;" d="M117.2217712,279.461731c0.5481567,0.9320679-1.1746292,2.6841431-3.1313705,2.8764343
					c-2.0190353,0.1991577-2.0523376-1.5627747-1.961792-1.6630249c0.3664169-0.4059448,1.8923035,0.899353,2.8583298,0.2458191
					C115.9529648,280.2677307,116.995079,279.0761108,117.2217712,279.461731"/>
				<path style="fill:#57AEDA;" d="M112.4551926,281.2617188c0.5836792,0.7548828,1.605545,0.4460449,2.6012344,0.181366
					c1.5483017-0.4113464,2.9539108-1.3219604,1.9371643-2.6367493c-0.65242-0.8432922-1.6489258-0.3027039-2.7315979,0.089447
					C112.870163,279.4009094,111.5151978,280.0461426,112.4551926,281.2617188"/>
				<path style="fill:#266785;" d="M116.0912628,278.8701172c-0.8501205,1.391449-2.8104935,2.1011963-3.3579865,1.7412415
					c-0.5474854-0.3594971,0.3164978-1.0352173,1.3216782-1.4125061
					C115.0593262,278.8212585,116.6025696,278.0333557,116.0912628,278.8701172"/>
			</g>
			<g>
				<defs>
					<path id="SVGID_11_" d="M114.2619934,278.8957825c-1.3918304,0.505127-2.7467957,1.1503601-1.8068008,2.3659363
						c0.5836792,0.7545166,1.604805,0.4467773,2.6012344,0.1817322c1.5476227-0.4117126,2.9539108-1.3215942,1.9371643-2.6371155
						c-0.2534637-0.3273315-0.5583191-0.4464111-0.9001007-0.4464111
						C115.5546875,278.3599243,114.9239044,278.655365,114.2619934,278.8957825"/>
				</defs>
				<clipPath id="SVGID_12_">
					<use xlink:href="#SVGID_11_"  style="overflow:visible;"/>
				</clipPath>
				<path style="clip-path:url(#SVGID_12_);fill:#4295BF;" d="M117.0052338,279.2987976
					c-0.5460815,1.6844482-3.5636978,2.3445129-4.2690659,2.2264709c-0.7052917-0.1173401,0.2353668,0.9207764,2.3571854,0.5032959
					c2.8047943-0.5514221,2.6171799-2.8988342,2.3173676-3.3178101
					C117.1109085,278.2918396,117.1123886,278.9664307,117.0052338,279.2987976"/>
			</g>
		</g>
		<g id="_x31_3_1_">
			<g>
				<path style="fill:#1B6588;" d="M98.7233429,281.6237488c0.015274,0.7441406-1.6105194,1.2155457-2.8503113,0.6716919
					c-1.2796402-0.5612183-0.7053833-1.6308289-0.6177216-1.6604919c0.3569794-0.1202698,0.8327713,1.1781921,1.6337128,1.1116028
					C97.6892395,281.6795044,98.7175598,281.3152466,98.7233429,281.6237488"/>
				<path style="fill:#57AEDA;" d="M95.2531509,281.09729c0.0969925,0.6502991,0.8139343,0.8096619,1.5018768,0.9859924
					c1.0682144,0.2748108,2.2196274,0.2023621,2.0516663-0.9302063c-0.1072311-0.7267456-0.8871307-0.7383118-1.6699905-0.8672485
					C96.1308594,280.1196289,95.0989075,280.0505371,95.2531509,281.09729"/>
				<path style="fill:#266785;" d="M98.2439957,280.8876648c-0.979805,0.5485229-2.3963394,0.3139038-2.6041946-0.0861816
					c-0.2071152-0.4015503,0.5388107-0.5156555,1.2702103-0.4041443
					C97.6407394,280.509613,98.8334579,280.5570679,98.2439957,280.8876648"/>
			</g>
			<g>
				<defs>
					<path id="SVGID_13_" d="M95.2531509,281.09729c0.0962524,0.6502991,0.8139343,0.8096619,1.5018768,0.9859924
						c1.0682144,0.275177,2.2196274,0.2027283,2.0516663-0.9305725c-0.1064911-0.7259827-0.8878708-0.7379456-1.6699905-0.8668823
						c-0.3215408-0.0527954-0.646698-0.0962524-0.9334717-0.0962524
						C95.592041,280.1895752,95.1481476,280.3854065,95.2531509,281.09729"/>
				</defs>
				<clipPath id="SVGID_14_">
					<use xlink:href="#SVGID_13_"  style="overflow:visible;"/>
				</clipPath>
				<path style="clip-path:url(#SVGID_14_);fill:#4295BF;" d="M98.6480713,281.4525146
					c-0.8957977,0.8273621-2.9307709,0.2067566-3.314537-0.1021118c-0.3838272-0.308136-0.1687775,0.6325378,1.2462616,1.0971375
					c1.870575,0.6140747,2.5498428-0.8585205,2.510025-1.2111816
					C99.0514069,280.8833008,98.8247833,281.2892151,98.6480713,281.4525146"/>
			</g>
		</g>
		<g id="_x31_2_1_">
			<g>
				<path style="fill:#1B6588;" d="M188.1403198,234.4856415c1.1022644-0.534729,2.9256744,1.5700226,2.9662323,3.7975922
					c0.0420532,2.2992706-1.9508667,2.1776581-2.0558929,2.0667877c-0.4258728-0.4511566,1.1868591-2.0562592,0.5366058-3.2073822
					C188.9362335,235.9923401,187.6841278,234.7072906,188.1403198,234.4856415"/>
				<path style="fill:#57AEDA;" d="M189.7429962,240.0339661c0.9051971-0.5909424,0.6495056-1.7731323,0.4402466-2.9223938
					c-0.3251801-1.7858276-1.2267609-3.456543-2.804718-2.427124c-1.0109711,0.6615448-0.4909821,1.835434-0.1455688,3.0937042
					C187.677597,239.3963013,188.2844849,240.9862823,189.7429962,240.0339661"/>
				<path style="fill:#266785;" d="M187.3698425,235.7095032c1.4946899,1.0859375,2.1196747,3.3659973,1.6641388,3.9514618
					c-0.4562073,0.5855408-1.1413269-0.4511566-1.4773407-1.6206665
					C187.2206421,236.8704071,186.4704132,235.0559692,187.3698425,235.7095032"/>
			</g>
			<g>
				<defs>
					<path id="SVGID_15_" d="M187.3785248,234.6851959c-1.0117035,0.6604309-0.4909821,1.8350525-0.1455688,3.0937042
						c0.4446411,1.6177826,1.0515289,3.2076721,2.5100403,2.2550659c0.9051971-0.5916901,0.6495056-1.7731323,0.4402466-2.9223938
						c-0.2563477-1.4067383-0.8697052-2.7421265-1.8900757-2.7421265
						C188.0187073,234.3694458,187.7137909,234.4661407,187.3785248,234.6851959"/>
				</defs>
				<clipPath id="SVGID_16_">
					<use xlink:href="#SVGID_15_"  style="overflow:visible;"/>
				</clipPath>
				<path style="clip-path:url(#SVGID_16_);fill:#4295BF;" d="M187.9360962,234.7167053
					c1.8538971,0.7687073,2.3267822,4.2374878,2.1305695,5.0232391c-0.1969604,0.7867889,1.0608673-0.1824951,0.7813873-2.6171722
					c-0.3700409-3.2189484-3.038681-3.219696-3.5397491-2.9184723
					C186.8078308,234.5055847,187.571106,234.5642548,187.9360962,234.7167053"/>
			</g>
		</g>
		<g id="_x31_1_1_">
			<g>
				<path style="fill:#1B6588;" d="M183.2427216,254.0814972c0.9204102,0.5442352,0.2686615,2.8880768-1.3331757,3.9931488
					c-1.6532898,1.1394653-2.5266266-0.3707886-2.4969788-0.5003967c0.1231079-0.5275574,2.0704346-0.1282349,2.5939789-1.1565552
					C182.5294189,255.38797,182.8611145,253.8562927,183.2427216,254.0814972"/>
				<path style="fill:#57AEDA;" d="M179.9766846,257.926178c0.86763,0.373291,1.6040497-0.3830872,2.3398285-1.0898743
					c1.1434784-1.0989838,1.9256134-2.5610352,0.4127502-3.2127838c-0.9681854-0.4178772-1.5721741,0.5279083-2.3216705,1.3875275
					C179.444458,256.114624,178.5797272,257.3236694,179.9766846,257.926178"/>
				<path style="fill:#266785;" d="M181.9797668,254.1112366c-0.0694733,1.6123657-1.4273529,3.1678467-2.0733185,3.1183167
					c-0.6467133-0.0489502-0.223053-1.0482483,0.4663696-1.8575134
					C181.0622406,254.5630646,182.0217438,253.1412048,181.9797668,254.1112366"/>
			</g>
			<g>
				<defs>
					<path id="SVGID_17_" d="M180.4075928,255.0102997c-0.9631348,1.1050568-1.8278656,2.313736-0.4309082,2.9155121
						c0.86763,0.3740234,1.6040497-0.3827209,2.3405609-1.0895081c1.142746-1.0982361,1.9241333-2.5617676,0.4127502-3.2127838
						c-0.1629181-0.0702972-0.3157501-0.1017456-0.4598389-0.1017456
						C181.5539856,253.5217743,181.0310974,254.295517,180.4075928,255.0102997"/>
				</defs>
				<clipPath id="SVGID_18_">
					<use xlink:href="#SVGID_17_"  style="overflow:visible;"/>
				</clipPath>
				<path style="clip-path:url(#SVGID_18_);fill:#4295BF;" d="M182.9762878,254.0442047
					c0.3352509,1.7207031-1.9618835,3.7393036-2.6295013,3.9757843c-0.6670227,0.2360229,0.6459656,0.6839294,2.2825928-0.6945496
					c2.1645203-1.8227386,0.8777008-3.7660675,0.4163818-3.9851227
					C182.5851746,253.1208954,182.9103546,253.7045746,182.9762878,254.0442047"/>
			</g>
		</g>
		<g id="_x31_0_1_">
			<g>
				<path style="fill:#1B6588;" d="M189.8660889,247.1812439c0.7335358,0.1267242,0.8871155,1.8125916,0.118042,2.9263306
					c-0.7944336,1.1493378-1.7359009,0.3827972-1.7482147,0.2901001c-0.0499878-0.3733826,1.315155-0.5938416,1.4020538-1.3922729
					C189.7248077,248.2070313,189.5626373,247.1283722,189.8660889,247.1812439"/>
				<path style="fill:#57AEDA;" d="M188.6899872,250.4874725c0.6568451,0.0296631,0.9494019-0.644928,1.2535858-1.2861481
					c0.4728851-0.9968872,0.6198578-2.1403656-0.5236206-2.1921234c-0.7335358-0.032547-0.8936462,0.7317657-1.1688385,1.4759216
					C187.8970184,249.4409943,187.6319885,250.4407501,188.6899872,250.4874725"/>
				<path style="fill:#266785;" d="M189.0520782,247.5118256c0.3526764,1.0659943-0.1477203,2.4129486-0.5800476,2.5403595
					c-0.4323273,0.1274719-0.4034119-0.6278076-0.1542511-1.323761
					C188.5668793,248.0321045,188.8399048,246.8705292,189.0520782,247.5118256"/>
			</g>
			<g>
				<defs>
					<path id="SVGID_19_" d="M188.2511139,248.484375c-0.3540955,0.9558716-0.6183777,1.9556427,0.4388733,2.0030975
						c0.6568451,0.0296631,0.9486542-0.644928,1.2535858-1.2861481c0.4728851-0.9968872,0.6198578-2.141037-0.5236206-2.1921234
						c-0.0151978-0.0003662-0.0303955-0.0007477-0.0448608-0.0007477
						C188.6798859,247.0084534,188.5205231,247.756546,188.2511139,248.484375"/>
				</defs>
				<clipPath id="SVGID_20_">
					<use xlink:href="#SVGID_19_"  style="overflow:visible;"/>
				</clipPath>
				<path style="clip-path:url(#SVGID_20_);fill:#4295BF;" d="M189.6843262,247.2224731
					c0.6415863,1.0366974-0.3549194,2.9166107-0.7307281,3.2348938c-0.3751526,0.3182678,0.5887146,0.2864685,1.3136749-1.0145264
					c0.9588318-1.7199707-0.3577423-2.6664124-0.7118988-2.6954041
					C189.2012787,246.7184296,189.5576019,247.0182495,189.6843262,247.2224731"/>
			</g>
		</g>
		<g id="_x39__1_">
			<g>
				<path style="fill:#1B6588;" d="M112.5442505,188.2650757c0.3831024-1.164093,3.1639404-1.0098572,4.7926102,0.5101929
					c1.680809,1.568985,0.2071152,2.9166107,0.0536118,2.9148407c-0.6192017-0.0076447-0.6510086-2.2833252-1.9299011-2.6160736
					C114.1809387,188.7419739,112.385704,188.7467194,112.5442505,188.2650757"/>
				<path style="fill:#57AEDA;" d="M117.6453476,190.9727936c0.2057037-1.0619812-0.8219452-1.7000122-1.7930069-2.3485107
					c-1.5092163-1.0091095-3.3362656-1.5240479-3.6940689,0.3262939c-0.2295151,1.1858215,0.9761887,1.6293488,2.1211472,2.256485
					C115.7509689,192.0130463,117.3151398,192.6829681,117.6453476,190.9727936"/>
				<path style="fill:#266785;" d="M112.8882599,189.6696625c1.8198547-0.3186493,3.8924332,0.8182983,3.9960403,1.5533295
					c0.103508,0.7350311-1.1181335,0.5061951-2.192131-0.0655518
					C113.618988,190.584671,111.7932816,189.8615723,112.8882599,189.6696625"/>
			</g>
			<g>
				<defs>
					<path id="SVGID_21_" d="M112.1582718,188.9501953c-0.2288437,1.1865692,0.9761887,1.6293488,2.1211472,2.256485
						c1.47155,0.806366,3.0357208,1.4762878,3.3659286-0.2338867c0.2057037-1.0619812-0.8219452-1.6992798-1.7930069-2.3492432
						c-0.7792282-0.5206451-1.6431427-0.9098969-2.3456192-0.9098969
						C112.8476944,187.7136536,112.3313522,188.0558167,112.1582718,188.9501953"/>
				</defs>
				<clipPath id="SVGID_22_">
					<use xlink:href="#SVGID_21_"  style="overflow:visible;"/>
				</clipPath>
				<path style="clip-path:url(#SVGID_22_);fill:#4295BF;" d="M112.5688705,188.5717773
					c1.8415909-0.7969513,4.6623154,1.276001,5.091011,1.9643097c0.4279633,0.6884003,0.6068192-0.8889008-1.3368759-2.3818054
					c-2.5700912-1.9733429-4.4276123-0.0567932-4.5586472,0.5123444
					C111.6325073,189.2362213,112.2053604,188.7289276,112.5688705,188.5717773"/>
			</g>
		</g>
		<g id="_x38__1_">
			<g>
				<path style="fill:#1B6588;" d="M85.6896667,199.8055573c-1.4063644,0.4189758-3.1552505-2.4197845-2.7743149-5.0609131
					c0.3939133-2.7250671,2.7272263-2.1967773,2.8293381-2.0454254c0.4156418,0.6148224-1.8002777,2.2015228-1.252861,3.6867981
					C85.040062,197.8706055,86.2718582,199.6321716,85.6896667,199.8055573"/>
				<path style="fill:#57AEDA;" d="M84.8655014,192.9389648c-1.1847153,0.5242767-1.109375,1.9700928-1.0840836,3.3688202
					c0.0398331,2.1740112,0.7828674,4.3226013,2.8460159,3.4090729c1.3230896-0.5851593,0.934967-2.0736847,0.7690735-3.6285095
					C87.1836014,194.090744,86.7730026,192.0945435,84.8655014,192.9389648"/>
				<path style="fill:#266785;" d="M86.8360367,198.5078278c-1.5577164-1.5721741-1.8561172-4.386673-1.204361-4.9906006
					c0.651825-0.6051178,1.2615356,0.7527466,1.4332047,2.2000427
					C87.2364807,197.1637573,87.7723999,199.4532471,86.8360367,198.5078278"/>
			</g>
			<g>
				<defs>
					<path id="SVGID_23_" d="M84.86483,192.9389648c-1.1840439,0.5242767-1.1087036,1.9700928-1.0834122,3.3688202
						c0.0398331,2.1740112,0.7828674,4.3226013,2.8460159,3.4090729c1.3230896-0.5858307,0.934967-2.0736847,0.7690735-3.6277618
						c-0.1788635-1.6750336-0.4967728-3.3489532-1.7177429-3.3489532
						C85.4427261,192.7401428,85.173317,192.8024445,84.86483,192.9389648"/>
				</defs>
				<clipPath id="SVGID_24_">
					<use xlink:href="#SVGID_23_"  style="overflow:visible;"/>
				</clipPath>
				<path style="clip-path:url(#SVGID_24_);fill:#4295BF;" d="M85.9749451,199.5720367
					c-2.0428467-1.2662048-1.9328003-5.456665-1.5483017-6.3480988c0.3838425-0.891861-1.289711,0.0112-1.4287567,2.9426422
					c-0.1832352,3.875824,2.9706039,4.3917999,3.6194687,4.1321869
					C87.2676239,200.0391388,86.3768616,199.8226166,85.9749451,199.5720367"/>
			</g>
		</g>
		<g id="_x37__1_">
			<g>
				<path style="fill:#1B6588;" d="M94.5477829,221.1535645c-1.1311722,0.4707336-2.8322296-1.734726-2.7460556-3.9608765
					c0.0890579-2.2977905,2.0725708-2.0627899,2.1717911-1.9454803c0.3990326,0.4743042-1.3035049,1.9853058-0.719162,3.1708221
					C93.8387833,219.6038513,95.0155563,220.9587555,94.5477829,221.1535645"/>
				<path style="fill:#57AEDA;" d="M93.2637787,215.5227814c-0.9377747,0.5387421-0.7494965,1.7329407-0.6060791,2.8926544
					c0.2223206,1.8021393,1.0268402,3.5213623,2.6613007,2.58284c1.0471649-0.6018372,0.5953217-1.8043518,0.3215408-3.0803528
					C95.2893372,216.2766418,94.773735,214.6555176,93.2637787,215.5227814"/>
				<path style="fill:#266785;" d="M95.3863373,219.9756775c-1.4302368-1.1695099-1.9248505-3.4814606-1.4360275-4.0401459
					c0.4880905-0.5583191,1.1138153,0.5155945,1.3832245,1.7025299
					C95.6014633,218.8253784,96.2466888,220.6796417,95.3863373,219.9756775"/>
			</g>
			<g>
				<defs>
					<path id="SVGID_25_" d="M93.2637787,215.5231476c-0.9377747,0.5383759-0.7494965,1.7333069-0.6060791,2.8930359
						c0.2215805,1.8013916,1.0268402,3.5206146,2.6613007,2.5820923c1.047905-0.6022186,0.5953217-1.8043518,0.3215408-3.0803528
						c-0.2831268-1.3248596-0.6742249-2.636673-1.6083603-2.6370392
						C93.8091202,215.2808838,93.554924,215.3558502,93.2637787,215.5231476"/>
				</defs>
				<clipPath id="SVGID_26_">
					<use xlink:href="#SVGID_25_"  style="overflow:visible;"/>
				</clipPath>
				<path style="clip-path:url(#SVGID_26_);fill:#4295BF;" d="M94.7635727,220.9348755
					c-1.8068008-0.873703-2.0805817-4.3635406-1.8400955-5.1369019c0.2418213-0.773819-1.0688782,0.1219788-0.9291687,2.5678558
					c0.1853867,3.2349701,2.8503952,3.388092,3.3674088,3.1161652
					C95.8780594,221.2100677,95.1198959,221.1075897,94.7635727,220.9348755"/>
			</g>
		</g>
		<g id="_x36__1_">
			<g>
				<path style="fill:#1B6588;" d="M94.2533875,237.71698c-0.9258347-0.3418579-0.7201996-2.5740967,0.5518646-3.8396301
					c1.3125534-1.3064117,2.3553314-0.0810547,2.3495483,0.042038c-0.0246201,0.4981842-1.8585663,0.456955-2.1638641,1.4758453
					C94.684967,236.414505,94.6368561,237.8581696,94.2533875,237.71698"/>
				<path style="fill:#57AEDA;" d="M96.5841827,233.6930695c-0.8490829-0.1955566-1.3933258,0.6111908-1.9451904,1.3737335
					c-0.8563461,1.1844177-1.3244934,2.6389008,0.1553574,2.9814301c0.9486771,0.21875,1.3408127-0.7386627,1.8796234-1.640625
					C97.3666611,235.2471466,97.9524918,234.0084534,96.5841827,233.6930695"/>
				<path style="fill:#266785;" d="M95.394722,237.4816132c-0.2031174-1.4733276,0.773735-3.1067657,1.3683167-3.1686859
					c0.5956116-0.0619202,0.3751526,0.9139709-0.1173096,1.7612
					C96.1532516,236.9206848,95.5174408,238.367981,95.394722,237.4816132"/>
			</g>
			<g>
				<defs>
					<path id="SVGID_27_" d="M94.4579773,235.0664368c-0.8552322,1.1847839-1.323082,2.6396332,0.1549911,2.9811249
						c0.9471893,0.218689,1.3389511-0.7379913,1.877037-1.6399536c0.6915665-1.1604614,1.2767258-2.3984222-0.0898132-2.7145386
						c-0.0875778-0.0202484-0.1716003-0.0296631-0.2527237-0.0296631
						C95.4399567,233.6634064,94.9525986,234.3835297,94.4579773,235.0664368"/>
				</defs>
				<clipPath id="SVGID_28_">
					<use xlink:href="#SVGID_27_"  style="overflow:visible;"/>
				</clipPath>
				<path style="clip-path:url(#SVGID_28_);fill:#4295BF;" d="M94.3203506,237.7064514
					c-0.5872421-1.5052185,1.1623154-3.7131958,1.7293777-4.0376282c0.5655975-0.3240662-0.6980972-0.5138245-1.9552612,1.0062103
					c-1.6627197,2.0085144-0.1753006,3.5585785,0.2780838,3.6813812
					C94.8272781,238.478775,94.4355087,238.0029907,94.3203506,237.7064514"/>
			</g>
		</g>
		<g id="_x35__1_">
			<g>
				<path style="fill:#1B6588;" d="M95.8845901,182.4337006c0.2049713-1.7329407,4.1318054-2.3036499,6.8369293-0.6430817
					c2.7906265,1.7144775,1.1130753,4.0122681,0.8994293,4.0524597c-0.8675461,0.164032-1.5558548-3.0031586-3.4354782-3.1049042
					C98.3048019,182.6356964,95.7999039,183.1506348,95.8845901,182.4337006"/>
				<path style="fill:#57AEDA;" d="M103.7737885,184.7701874c-0.0137939-1.5391693-1.6283112-2.1391602-3.1689682-2.7714081
					c-2.3927078-0.9815979-5.0895309-1.1825714-5.0656509,1.5005341c0.0159454,1.7198944,1.8246002,1.9976044,3.6006317,2.549469
					C101.4231262,186.7580872,103.796257,187.2509308,103.7737885,184.7701874"/>
				<path style="fill:#266785;" d="M96.7615509,184.2962646c2.4521103-0.9588318,5.6674194,0.0419769,6.0201035,1.0381012
					c0.3523178,0.9964294-1.4179306,1.0229034-3.0795364,0.5271759
					C98.0404434,185.3665466,95.2874832,184.8730469,96.7615509,184.2962646"/>
			</g>
			<g>
				<defs>
					<path id="SVGID_29_" d="M95.453743,183.4989471c0.0159454,1.7210083,1.8234863,1.9979706,3.5984039,2.5498352
						c2.2811737,0.7093048,4.6535645,1.2021484,4.6310959-1.278595c-0.0137177-1.5391693-1.6271973-2.140274-3.1660767-2.7714081
						c-0.9718857-0.3986664-1.9936752-0.6687469-2.8633728-0.6687469
						C96.3835831,181.3300323,95.4392166,181.9064484,95.453743,183.4989471"/>
				</defs>
				<clipPath id="SVGID_30_">
					<use xlink:href="#SVGID_29_"  style="overflow:visible;"/>
				</clipPath>
				<path style="clip-path:url(#SVGID_30_);fill:#4295BF;" d="M95.920105,182.8544617
					c2.3448792-1.6326904,6.8673401,0.463089,7.6596146,1.3023834c0.7915497,0.8396759,0.595253-1.4125061-2.5390167-2.9459686
					c-4.1444092-2.0276489-6.1938477,1.1721039-6.21698,2.00383
					C94.8005066,184.0460663,95.4572983,183.1762848,95.920105,182.8544617"/>
			</g>
		</g>
		<g id="_x34__1_">
			<g>
				<path style="fill:#1B6588;" d="M110.1718674,156.5773163c1.2897873-1.2550049,4.8049164,0.8367767,5.8912201,3.9232025
					c1.1217499,3.1852875-1.7148514,3.9373779-1.9118805,3.8308868c-0.8008804-0.4315796,0.705368-3.4155426-0.7342911-4.7186737
					C111.9779968,158.310257,109.6381683,157.0965576,110.1718674,156.5773163"/>
				<path style="fill:#57AEDA;" d="M114.970253,163.5710144c0.9892426-1.24263,0.086174-2.7720947-0.7364349-4.2776642
					c-1.2788925-2.3394623-3.3073425-4.2520142-5.0308685-2.0867462c-1.1058121,1.3890076,0.1629181,2.7852173,1.2267532,4.3798523
					C111.7969131,163.6373138,113.3770981,165.5730743,114.970253,163.5710144"/>
				<path style="fill:#266785;" d="M109.6635284,158.6390686c2.5860367,0.8237152,4.5108871,3.7124481,4.1458969,4.7393646
					c-0.3649979,1.0272064-1.799614-0.1009979-2.8083496-1.5761871
					C109.9922714,160.3267059,108.1079712,158.1440735,109.6635284,158.6390686"/>
			</g>
			<g>
				<defs>
					<path id="SVGID_31_" d="M109.2029495,157.2069702c-1.1058121,1.3890076,0.1629181,2.7852173,1.2267532,4.3798676
						c1.3672104,2.0500946,2.9473953,3.9862366,4.5405502,1.9841766c0.9892426-1.2422638,0.086174-2.7717133-0.7371826-4.277298
						c-0.8842316-1.6188965-2.1283417-3.0335693-3.3819427-3.0335693
						C110.2935562,156.2594147,109.7337494,156.5400238,109.2029495,157.2069702"/>
				</defs>
				<clipPath id="SVGID_32_">
					<use xlink:href="#SVGID_31_"  style="overflow:visible;"/>
				</clipPath>
				<path style="clip-path:url(#SVGID_32_);fill:#4295BF;" d="M109.9944916,156.9926605
					c2.9393768,0.2157898,5.2024612,4.832428,5.2915192,6.0192871c0.0890579,1.1869354,1.3947906-0.744812-0.1202087-4.0097351
					c-2.00383-4.316452-5.7245941-3.0842896-6.2829895-2.433197
					C108.3237686,157.2207642,109.41436,156.9498749,109.9944916,156.9926605"/>
			</g>
		</g>
		<g id="_x33__1_">
			<g>
				<path style="fill:#1B6588;" d="M104.9410248,129.5068359c1.1079483-0.1441498,2.0776825,2.2036133,1.4693146,4.1426392
					c-0.6271362,2.0008698-2.3166275,1.3198242-2.3760223,1.1930847c-0.2375107-0.5123444,1.6214828-1.4360962,1.390419-2.6186523
					C105.1944809,131.0406036,104.4825821,129.5665436,104.9410248,129.5068359"/>
				<path style="fill:#57AEDA;" d="M104.725235,134.7697449c0.9537048-0.2501984,1.0739136-1.3462219,1.2245941-2.4010162
					c0.2346268-1.6391296-0.0622864-3.344574-1.7250061-2.9089813c-1.0652466,0.279129-0.9552002,1.4450836-1.018898,2.6334991
					C103.1226425,133.6219635,103.1884918,135.1724091,104.725235,134.7697449"/>
				<path style="fill:#266785;" d="M103.9213867,130.342865c0.9790649,1.3719635,0.8617554,3.5245514,0.2976532,3.8989716
					c-0.5626984,0.3751526-0.8567276-0.7194672-0.8096313-1.8281708
					C103.4564972,131.3045959,103.3319092,129.5184021,103.9213867,130.342865"/>
			</g>
			<g>
				<defs>
					<path id="SVGID_33_" d="M104.224823,129.4593811c-1.0652466,0.2791901-0.9552002,1.4461823-1.018898,2.6338654
						c-0.0840225,1.5283508-0.0181732,3.0791626,1.51931,2.6761322c0.9537048-0.2498322,1.0739136-1.3458557,1.2252655-2.40065
						c0.2085953-1.4624176-0.0057907-2.9785309-1.2346954-2.9785309
						C104.5673447,129.3901978,104.4036865,129.4122925,104.224823,129.4593811"/>
				</defs>
				<clipPath id="SVGID_34_">
					<use xlink:href="#SVGID_33_"  style="overflow:visible;"/>
				</clipPath>
				<path style="clip-path:url(#SVGID_34_);fill:#4295BF;" d="M104.6984558,129.6476593
					c1.3809967,1.2010345,0.7885666,4.3381805,0.3910217,4.9609375c-0.3968735,0.6239471,0.9703979,0.1488342,1.4323883-2.037796
					c0.6097794-2.8919983-1.6989059-3.6629181-2.218811-3.5470123
					C103.7830734,129.139328,104.4261551,129.4105072,104.6984558,129.6476593"/>
			</g>
		</g>
		<g id="_x32__1_">
			<g>
				<path style="fill:#1B6588;" d="M106.9996338,114.0601578c1.2296448,0.0387878,1.8690948,2.7605972,0.8661346,4.7607956
					c-1.0348434,2.0639038-2.7511749,1.0254288-2.7917328,0.8773346c-0.1680374-0.5989532,2.0146561-1.2742157,1.9719467-2.600563
					C107.0040054,115.7714539,106.4905548,114.0439224,106.9996338,114.0601578"/>
				<path style="fill:#57AEDA;" d="M105.836586,119.7406311c1.080513-0.1032257,1.4049454-1.2734756,1.7546616-2.3927078
					c0.5438538-1.7402115,0.5221329-3.6458588-1.3614273-3.4658813c-1.2071762,0.1155319-1.2926788,1.4027252-1.5721741,2.6830978
					C104.297699,118.2108002,104.0956955,119.9075546,105.836586,119.7406311"/>
				<path style="fill:#266785;" d="M105.7438889,114.7887421c0.8226776,1.6630096,0.3143387,3.9814911-0.3635178,4.2896042
					c-0.6785278,0.308197-0.8045883-0.9338379-0.5576553-2.1297455
					C105.0689926,115.751503,105.2492752,113.7886047,105.7438889,114.7887421"/>
			</g>
			<g>
				<defs>
					<path id="SVGID_35_" d="M105.4878922,113.8816681c-1.2079163,0.1155319-1.2926025,1.4027252-1.5721741,2.6830978
						c-0.3599472,1.6460342-0.5619507,3.3424225,1.1782608,3.1758652c1.0819321-0.1028519,1.4048767-1.2731018,1.7554169-2.393074
						c0.5199051-1.6630173,0.5221252-3.4770889-1.1224976-3.4770889
						C105.6508179,113.8704681,105.5711746,113.8743973,105.4878922,113.8816681"/>
				</defs>
				<clipPath id="SVGID_36_">
					<use xlink:href="#SVGID_35_"  style="overflow:visible;"/>
				</clipPath>
			</g>
		</g>
		<g id="_x31__1_">
			<g>
				<defs>
					<path id="SVGID_37_" d="M104.3495331,144.8333588c-1.0442657,0.6079254-0.5851669,1.8071747-0.3049316,3.0816803
						c0.3606949,1.6388397,0.8842316,3.2581024,2.3898163,2.3818817c0.9341431-0.5438538,0.7408142-1.7376862,0.5902023-2.8956299
						c-0.1868668-1.4465485-0.7488174-2.8377075-1.8068008-2.8377075
						C104.95784,144.5635834,104.6695862,144.6468506,104.3495331,144.8333588"/>
				</defs>
				<clipPath id="SVGID_38_">
					<use xlink:href="#SVGID_37_"  style="overflow:visible;"/>
				</clipPath>
				<path style="clip-path:url(#SVGID_38_);fill:#4295BF;" d="M104.9049606,144.8934174
					c1.8111725,0.8636169,2.1052017,4.3519745,1.8676071,5.1268311c-0.2367783,0.7748566,1.0696182-0.1281433,0.9153748-2.573349
					c-0.2034836-3.2337799-2.8684845-3.3721619-3.3840942-3.0973358
					C103.7882462,144.6243896,104.5472336,144.7229462,104.9049606,144.8934174"/>
			</g>
			<g>
				<path style="fill:#1B6588;" d="M105.1192703,144.6736298c1.1290207-0.4771881,2.841713,1.7184753,2.7678604,3.9453735
					c-0.0767517,2.2985382-2.0617523,2.0743561-2.1602325,1.9570465c-0.4019241-0.4717865,1.2919388-1.9918213,0.7009964-3.1743774
					C105.8369446,146.2197723,104.6529007,144.8710327,105.1192703,144.6736298"/>
				<path style="fill:#57AEDA;" d="M106.4344177,150.2969208c0.9348831-0.5438538,0.7400742-1.7373199,0.5902023-2.8956299
					c-0.2324753-1.8007202-1.0464783-3.515564-2.675087-2.5679321c-1.0450058,0.6079254-0.585907,1.8071747-0.3049316,3.0816803
					C104.4052963,149.5538788,104.928833,151.1731415,106.4344177,150.2969208"/>
				<path style="fill:#266785;" d="M104.2872391,145.855896c1.4375076,1.1615753,1.9436951,3.4706268,1.4584961,4.0318451
					c-0.485199,0.561203-1.1167145-0.509079-1.3918991-1.6946106
					C104.0786438,147.0080414,103.4232559,145.1570435,104.2872391,145.855896"/>
			</g>
		</g>
	</g>
	<g id="Eye">
		<path style="fill:#081B37;" d="M213.4966736,157.8671112c-22.2184448-14.508194-28.9460602,10.6968079-30.763031,20.9467468
			c-0.9906464,5.5866699,6.9499359,13.1920013,12.0220337,12.8972321c3.0031586-0.3736725-0.3794403-6.3557281-0.0550232-8.4775543
			c1.0717773-6.5150909,3.8765106-12.1100616,7.5220642-17.3686676c1.3592682-2.0830994,2.9198761-3.8222046,4.1828156-5.7561035"/>
		<path style="fill:#FFFFFF;" d="M211.093811,179.7230835c-4.613678,7.0665131-10.9009552,11.1306152-14.0432281,9.0782928
			c-3.142868-2.05159-2.2355042-13.236496,2.3789825-20.3019714c4.6130066-7.0654144,11.1855621-7.3369598,14.3277588-5.2846375
			C216.9002838,165.2663574,215.70755,172.6580505,211.093811,179.7230835"/>
		<path style="fill:#BDA030;" d="M209.1921539,162.989563c0,0,1.7800446,6.6830597-0.8240814,12.6209259
			c-2.6042023,5.9385986-7.4178009,12.3222198-10.9292908,11.2070007c-3.5108337-1.1152344,0.7603912,2.7352295,0.7603912,2.7352295
			s9.622818,0.3385162,12.6629028-8.6021423c3.0401611-8.9407196,7.2649536-18.7294159,3.3044434-18.9669342
			C210.2067566,161.7461243,209.1921539,162.989563,209.1921539,162.989563"/>
		<path style="fill:#FBD40F;" d="M212.5197449,157.5121918c7.8022919,4.1376038,4.5833435,15.7972412,0.224472,24.0169525
			c-4.3580627,8.2190399-12.2972412,13.1992645-17.9885406,10.1811981
			c-5.6905518-3.0176086-3.9590149-16.1490936,1.5736542-26.5819855
			C201.8613586,154.6959076,212.5197449,157.5121918,212.5197449,157.5121918 M200.5519867,171.347641
			c-3.6845703,7.901062-6.0786896,13.7919159-2.8525543,16.0277863c3.3356018,2.3112183,9.5034332-1.5931549,12.7223816-7.6617584
			c3.2175293-6.0689697,4.993927-15.2065887-1.22966-16.7241058
			C206.2730255,162.2776642,203.2060852,165.6581268,200.5519867,171.347641"/>
		<path d="M205.6277924,177.1641998c-0.9001617,1.6982269-2.6686401,2.5241089-3.9496765,1.8444672
			c-1.2803802-0.6785278-1.5888672-2.6056061-0.6880188-4.303772c0.9009094-1.6985321,2.6686401-2.5248566,3.9496765-1.8455811
			C206.2208862,173.5386505,206.5286407,175.4660339,205.6277924,177.1641998"/>
		<path style="fill:#FCF3CA;" d="M193.9692535,175.7943878c-1.8184204,2.0639038-2.5918121,1.941925-0.7618713-1.6699066
			c1.8300171-3.6118317,2.680954-7.3525391,5.0127716-10.92276c2.3311615-3.5705261,7.8247681-6.0218811,9.2817688-5.2195282
			c0.8132782,0.4479065-4.2777405,1.8774719-7.283783,5.5696869"/>
		<path style="fill:#081B37;" d="M192.2471466,170.3489838c0,0-29.9259033-8.8871002-34.863327-18.4875183
			c-4.1038513-7.9782715-1.5120392-9.6883698-1.5120392-9.6883698s-4.2104034-0.1926575-4.5543365,4.8273163
			c-0.3425293,5.0200348,7.0150452,14.8956451,19.49263,20.4377441c12.4768372,5.542099,18.9270477,7.6444092,18.9270477,7.6444092"
			/>
		<path style="fill:#FCF3CA;" d="M212.1156769,180.7727509c-1.0558319,3.226593-4.6282043,8.378418-7.9225006,9.8057556
			c-3.2942963,1.426239-2.9473877-0.7282104-1.4700623-0.9599457c1.4773254-0.2321014,5.3364716-2.4864349,7.2214355-6.3477173
			C211.8295746,179.4088135,212.1156769,180.7727509,212.1156769,180.7727509"/>
	</g>
</g>
<g id="Livello_1">
	<g style="opacity:0.03;">
		<g>
			<g>
				<path d="M95.8726044,99.0065308c0,9.584816-1.4643555,18.3640213-7.1879654,25.1658859
					c-7.1723175,8.5246506-19.9058533,13.9433517-31.9220695,13.9433517c-15.1531525,0-27.3049564-8.6194-33.7962608-21.2251053
					c-2.7616482-5.3602676-5.3121662-11.4401245-5.3121662-17.8841324c0-8.3001175,4.0747604-17.9811478,8.4868774-24.3131332
					c7.06497-10.1404114,17.4434681-13.0345802,30.6215496-14.7938423
					c14.0732841-1.8788719,24.5447578,5.3681755,31.6224785,12.4467049
					C95.4627762,79.4223709,95.8726044,88.2078705,95.8726044,99.0065308"/>
			</g>
			<g>
				<path d="M58.7912331,122.4013672v27.1395111c0,1.120697,0.2427673,2.6686707-0.8795509,2.6686707
					c-1.1192513,0-3.1763077-1.5479736-3.1763077-2.6686707v-26.8100586"/>
			</g>
			<g>
				<path d="M54.7353745,124.6918488V52.347435c0-1.1198997,0.9079437-3.3740578,2.027195-3.3740578
					c1.1207047,0,2.0286636,2.254158,2.0286636,3.3740578v72.0141602"/>
			</g>
			<g>
				<path d="M61.540451,104.1595383l-46.138855,10.4785767c-1.1097279,0.1575394-4.6234093,0.2624588-4.7794971-0.8450089
					c-0.1559267-1.1105347,0.9473448-2.0231705,2.2652979-2.7293625l47.8348579-10.8679123"/>
			</g>
			<g>
				<path d="M56.5545197,99.7040024l47.3446274-10.7568512c1.1082535-0.1567383,4.2561722,0.3145981,4.4121017,1.4227066
					c0.1576996,1.1105347-3.3795471,2.5937805-4.4908905,2.7506714l-46.4461899,10.5479889"/>
			</g>
			<g>
				<path d="M87.3950958,133.1409454l-7.7774582-7.7768021c-0.7928696-0.79142-0.7928696-2.0761185,0-2.868187
					c0.7912521-0.7912521,2.0743408-0.7912521,2.8672104,0l7.7792358,7.7768097
					c0.7896576,0.7912598,1.3839722,3.3300018,0.5927353,4.1220551
					C90.4610062,134.7896423,87.7908859,133.537384,87.3950958,133.1409454"/>
			</g>
			<g>
				<path d="M32.7332077,78.9478149c-0.5186272,0-1.038868-0.1977386-1.4328823-0.5935211L18.2089272,65.2638626
					c-0.7912579-0.7920685-1.3855877-2.6694832-0.5927162-3.4609032c0.7898026-0.7928696,2.6702881-0.1993446,3.4617043,0.5927162
					l13.0896263,13.0905914c0.7914162,0.7912598,0.7914162,2.0759583,0,2.8680267
					C33.7719116,78.7500763,33.2518311,78.9478149,32.7332077,78.9478149"/>
			</g>
			<g>
				<path d="M24.3204193,134.6296844c-0.5375118,0.3341217-3.0281448,1.1137695-3.4237728,0.7173309
					c-0.7914181-0.7930298-0.7914181-2.0777435,0-2.868988l7.2904682-7.2904739
					c0.7912712-0.7912598,2.0759583-0.7912598,2.8672142,0c0.7928715,0.7912521,0.7928715,2.0759583,0,2.8688278
					l-5.0787601,5.0781097C25.5797787,133.5310974,25.5310326,133.8786163,24.3204193,134.6296844"/>
			</g>
			<g>
				<path d="M80.1204453,71.7417679c-0.518631,0-1.0372391-0.1978989-1.4328842-0.5935287
					c-0.7928696-0.7920609-0.7928696-2.0759583,0-2.8681793l8.0013428-7.8358917
					c0.79142-0.7920609,1.9894409-0.6777802,2.3046799,0.3957901c0.4445419,1.5100365-0.5628357,3.4323273-1.3557205,4.2237473
					l-6.0829239,6.0845337C81.1593094,71.543869,80.640686,71.7417679,80.1204453,71.7417679"/>
			</g>
			<g>
				<g>
					<defs>
						<rect id="SVGID_39_" x="17.6825676" y="61.9235458" width="8.0234385" height="9.7512398"/>
					</defs>
					<clipPath id="SVGID_40_">
						<use xlink:href="#SVGID_39_"  style="overflow:visible;"/>
					</clipPath>
					<g style="clip-path:url(#SVGID_40_);">
						<g>
							<defs>
								<rect id="SVGID_41_" x="17.6825676" y="61.9235458" width="8.0234385" height="9.7512398"/>
							</defs>
							<clipPath id="SVGID_42_">
								<use xlink:href="#SVGID_41_"  style="overflow:visible;"/>
							</clipPath>
							<g style="clip-path:url(#SVGID_42_);">
								<path style="fill:#292929;" d="M25.2172413,70.7217865c-4.1204395-3.6947937-4.8440628-5.3665695-5.7629986-6.5542603
									c0.0062943-0.0426102,0.1418839-0.3097534,0.219202-0.9095726c0.0046806-0.03228,0.0268097,0.1386566-0.085228-0.5462265
									c-0.0850658-0.5153999-0.3483334-0.6832695-0.5533295-0.7329865
									c-0.4396954-0.1047592-0.7392807-0.0495529-0.8211193,0.0748978
									c-0.6889191,1.041935-2.0367336,1.2209435,6.1286049,8.7320671
									c0.1987171,0.1835251,1.1129551,1.0654984,1.2847004,0.8582382
									C25.8131847,71.4232941,25.6617775,71.1206436,25.2172413,70.7217865"/>
							</g>
						</g>
					</g>
				</g>
			</g>
			<g>
				<g>
					<defs>
						<rect id="SVGID_43_" x="55.0491486" y="49.650341" width="2.588289" height="10.1271753"/>
					</defs>
					<clipPath id="SVGID_44_">
						<use xlink:href="#SVGID_43_"  style="overflow:visible;"/>
					</clipPath>
					<g style="clip-path:url(#SVGID_44_);">
						<g>
							<defs>
								<rect id="SVGID_45_" x="55.0491486" y="49.650341" width="2.588289" height="10.1271753"/>
							</defs>
							<clipPath id="SVGID_46_">
								<use xlink:href="#SVGID_45_"  style="overflow:visible;"/>
							</clipPath>
							<g style="clip-path:url(#SVGID_46_);">
								<path style="fill:#292929;" d="M55.6465454,57.1198273c-0.2317924-4.9433327,0.1071777-4.1457825,0.2852211-5.6377411
									c0.0332489-0.0251808,0.6921616,0.2301788,1.1681595-0.1434975c0.0267944-0.0196915-0.077301,0.1183167,0.3231506-0.4476013
									c0.3010406-0.4280739,0.2301788-0.7329865,0.1181564-0.9119949
									c-0.2379265-0.3822327-0.7376671-0.3365517-0.8858452-0.3128242l-0.045681,0.0095253
									c-1.0735703,0.257618-1.8743324,1.4391747-1.4391747,8.9320564
									c0.0156593,0.2711792-0.1087952,1.1957626,0.1607704,1.1689682
									C55.6150856,59.7499237,55.6733398,57.7164192,55.6465454,57.1198273"/>
							</g>
						</g>
					</g>
				</g>
			</g>
			<g>
				<g>
					<defs>
						<rect id="SVGID_47_" x="81.67939" y="60.2283592" width="7.1832891" height="5.9205399"/>
					</defs>
					<clipPath id="SVGID_48_">
						<use xlink:href="#SVGID_47_"  style="overflow:visible;"/>
					</clipPath>
					<g style="clip-path:url(#SVGID_48_);">
						<g>
							<defs>
								<rect id="SVGID_49_" x="81.67939" y="60.2283592" width="7.1832891" height="5.9205399"/>
							</defs>
							<clipPath id="SVGID_50_">
								<use xlink:href="#SVGID_49_"  style="overflow:visible;"/>
							</clipPath>
							<g style="clip-path:url(#SVGID_50_);">
								<path style="fill:#292929;" d="M83.301445,64.909874c2.5978165-2.6079788,3.3985977-3.0752754,3.6933365-3.2762375
									c0.6195145-0.4185486,0.6936035,0.45858,1.3005219,0.4916687c0.3656082,0.0205002,0.5862579-0.3065262,0.5657578-0.653244
									c-0.0235443-0.4508324-0.2285461-0.8048172-0.4648743-0.996254
									c-0.8543701-0.6982803-1.544899-0.1568947-6.0956726,4.7525406c-0.1861115,0.1993484-0.79142,0.7376633-0.5754471,0.9000473
									C81.955246,66.2994995,82.8806381,65.3347168,83.301445,64.909874"/>
							</g>
						</g>
					</g>
				</g>
			</g>
			<g>
				<g>
					<defs>
						<rect id="SVGID_51_" x="20.601902" y="125.8850403" width="8.3638783" height="9.1845121"/>
					</defs>
					<clipPath id="SVGID_52_">
						<use xlink:href="#SVGID_51_"  style="overflow:visible;"/>
					</clipPath>
					<g style="clip-path:url(#SVGID_52_);">
						<g>
							<defs>
								<rect id="SVGID_53_" x="20.601902" y="125.8850403" width="8.3638783" height="9.1845121"/>
							</defs>
							<clipPath id="SVGID_54_">
								<use xlink:href="#SVGID_53_"  style="overflow:visible;"/>
							</clipPath>
							<g style="clip-path:url(#SVGID_54_);">
								<path style="fill:#292929;" d="M28.4392605,126.8197784c-7.9004707,5.6748657-5.8843975,7.0343018-6.030962,7.7136993
									c-0.1104088,0.5100708-0.8575974,0.6566315-1.1507282,0.4390564
									c-0.8858299-0.6580963-2.2273655-1.1767273,6.3100491-8.2607422
									c0.2080498-0.1725464,1.1663704-1.007225,1.3287525-0.7912521
									C29.0697327,126.14991,28.9247818,126.4722519,28.4392605,126.8197784"/>
							</g>
						</g>
					</g>
				</g>
			</g>
			<g>
				<g>
					<defs>
						<rect id="SVGID_55_" x="55.0838509" y="140.9673309" width="3.5419285" height="10.8482161"/>
					</defs>
					<clipPath id="SVGID_56_">
						<use xlink:href="#SVGID_55_"  style="overflow:visible;"/>
					</clipPath>
					<g style="clip-path:url(#SVGID_56_);">
						<g>
							<defs>
								<rect id="SVGID_57_" x="55.0838509" y="140.9673309" width="3.5419285" height="10.8482161"/>
							</defs>
							<clipPath id="SVGID_58_">
								<use xlink:href="#SVGID_57_"  style="overflow:visible;"/>
							</clipPath>
							<g style="clip-path:url(#SVGID_58_);">
								<path style="fill:#292929;" d="M55.8909264,143.6250153c-0.230175,4.9433289,0.1071815,4.1472321,0.2852211,5.6375732
									c0.2616539,0.9221649,0.996254,0.840332,2.1973419,1.0041656c0.5171738,0.0702209,0.0962029,1.1893158-0.0172729,1.3697662
									c-0.2364693,0.3832092-1.1696129,0.0387421-1.3068123-0.0211334
									c-2.4920883-1.1026306-2.0680504-1.9846039-1.6346512-9.4776459c0.0174332-0.2703705-0.1086311-1.1956024,0.162384-1.168808
									C55.8609047,140.9957275,55.9191742,143.0282593,55.8909264,143.6250153"/>
							</g>
						</g>
					</g>
				</g>
			</g>
			<g>
				<g>
					<defs>
						<rect id="SVGID_59_" x="83.463829" y="127.7616425" width="7.1832891" height="5.9198942"/>
					</defs>
					<clipPath id="SVGID_60_">
						<use xlink:href="#SVGID_59_"  style="overflow:visible;"/>
					</clipPath>
					<g style="clip-path:url(#SVGID_60_);">
						<path style="fill:#292929;" d="M85.0842743,128.9998474c2.5978165,2.6087952,3.4000473,3.0762482,3.6949539,3.276413
							c0.6193466,0.419342,0.6934357-0.4579468,1.2987442-0.4910278c0.3673782-0.0213165,0.5880356,0.3058777,0.5675354,0.6533966
							c-0.0251846,0.4500275-0.2285614,0.8023987-0.4650192,0.9954529
							c-0.8543854,0.6990814-1.5447464,0.1568909-6.0971451-4.7518921
							c-0.1845016-0.1993561-0.7898026-0.7384796-0.5738297-0.9000549
							C83.7396927,127.6111984,84.6634674,128.5766144,85.0842743,128.9998474"/>
					</g>
				</g>
			</g>
			<g>
				<g>
					<defs>
						<rect id="SVGID_61_" x="11.0650234" y="110.2164688" width="8.6650782" height="3.3480694"/>
					</defs>
					<clipPath id="SVGID_62_">
						<use xlink:href="#SVGID_61_"  style="overflow:visible;"/>
					</clipPath>
					<g style="clip-path:url(#SVGID_62_);">
						<path style="fill:#292929;" d="M19.3013821,110.2298737c-2.5158138,0.2356644-7.0665703,1.5124588-7.6814146,2.3692474
							c-0.6116018,0.8574371-0.8575983,1.1450806,0,0.8574371c0.8590498-0.2852173,2.1910467-1.2248154,4.650218-1.9190598
							C18.729166,110.8430862,20.6081982,110.1068726,19.3013821,110.2298737"/>
					</g>
				</g>
			</g>
			<g>
				<g>
					<defs>
						<rect id="SVGID_63_" x="99.1908112" y="89.9827728" width="8.6082602" height="3.4939885"/>
					</defs>
					<clipPath id="SVGID_64_">
						<use xlink:href="#SVGID_63_"  style="overflow:visible;"/>
					</clipPath>
					<g style="clip-path:url(#SVGID_64_);">
						<path style="fill:#292929;" d="M99.6211472,93.4586945c2.5109711-0.2790833,7.0398102-1.6346512,7.6371918-2.5016098
							c0.5990067-0.8685684,0.8385468-1.1602478-0.0142059-0.8584061c-0.8527374,0.2995911-2.1689377,1.2633972-4.6155014,2.0012283
							C100.1822281,92.8367615,98.3159485,93.6028366,99.6211472,93.4586945"/>
					</g>
				</g>
			</g>
			<g>
				<g>
					<defs>
						<rect id="SVGID_65_" x="24.3377056" y="61.7014351" width="39.7531013" height="20.5613613"/>
					</defs>
					<clipPath id="SVGID_66_">
						<use xlink:href="#SVGID_65_"  style="overflow:visible;"/>
					</clipPath>
					<g style="clip-path:url(#SVGID_66_);">
						<path style="fill:#292929;" d="M35.8289833,67.2728271c-10.3358841,5.3610764-16.1004963,14.6124191-6.8443165,14.9860916
							c3.151144,0.1252594,1.6188297-2.4843369,9.5604458-9.9158859c2.3928146-2.2407608,11.9453545-7.9595337,19.0939407-8.322876
							c16.3242188-0.8316116-2.3077507-4.2434387-12.1093521-0.8316116
							C43.3291321,63.9531708,37.6670151,66.3199997,35.8289833,67.2728271"/>
					</g>
				</g>
			</g>
			<g>
				<g>
					<defs>
						<rect id="SVGID_67_" x="28.7750053" y="69.121048" width="67.0976028" height="68.9947281"/>
					</defs>
					<clipPath id="SVGID_68_">
						<use xlink:href="#SVGID_67_"  style="overflow:visible;"/>
					</clipPath>
					<g style="clip-path:url(#SVGID_68_);">
						<path style="fill:#292929;" d="M88.3866653,72.3462601c-1.0829315-1.0829315-2.246254-2.1682816-3.4868851-3.2252274
							c5.9647675,6.8554535,6.3305359,15.243866,6.3305359,25.4197922c0,9.584816-1.4643631,18.3656311-7.187973,25.1658859
							c-7.1739273,8.5246429-19.9073105,13.9425354-31.9220695,13.9425354c-9.0385933,0-17.0068436-3.0675354-23.3452702-8.2158585
							c6.8712597,7.7942429,16.5781078,12.6823807,27.9891796,12.6823807c12.0146027,0,24.7465286-5.417099,31.9204559-13.9433517
							c5.7236099-6.8018646,7.1879654-15.5810699,7.1879654-25.1658859
							C95.8726044,88.2078705,95.464386,79.4223709,88.3866653,72.3462601"/>
					</g>
				</g>
			</g>
			<g>
				<path d="M57.6373596,164.468811c-1.1515007,0-2.0854683-0.93396-2.0854683-2.0854645v-1.0435181
					c0-1.1515045,0.9339676-2.0854797,2.0854683-2.0854797s2.0854683,0.9339752,2.0854683,2.0854797v1.0435181
					C59.7228279,163.5348511,58.7888603,164.468811,57.6373596,164.468811z"/>
			</g>
			<g>
				<path d="M57.6373596,396.5461731c-1.1515007,0-2.0854683-0.93396-2.0854683-2.0854492v-2.0996704
					c0-1.1514893,0.9339676-2.0854492,2.0854683-2.0854492s2.0854683,0.93396,2.0854683,2.0854492v2.0996704
					C59.7228279,395.6122131,58.7888603,396.5461731,57.6373596,396.5461731z M57.6373596,382.8944702
					c-1.1515007,0-2.0854683-0.93396-2.0854683-2.0854492v-2.0996704c0-1.1514893,0.9339676-2.0854492,2.0854683-2.0854492
					s2.0854683,0.93396,2.0854683,2.0854492v2.0996704C59.7228279,381.9605103,58.7888603,382.8944702,57.6373596,382.8944702z
					 M57.6373596,369.2435608c-1.1515007,0-2.0854683-0.93396-2.0854683-2.0854492v-2.1004639
					c0-1.1514893,0.9339676-2.0854492,2.0854683-2.0854492s2.0854683,0.93396,2.0854683,2.0854492v2.1004639
					C59.7228279,368.3096008,58.7888603,369.2435608,57.6373596,369.2435608z M57.6373596,355.5918579
					c-1.1515007,0-2.0854683-0.93396-2.0854683-2.0854492v-2.1004639c0-1.1514893,0.9339676-2.0854492,2.0854683-2.0854492
					s2.0854683,0.93396,2.0854683,2.0854492v2.1004639C59.7228279,354.6578979,58.7888603,355.5918579,57.6373596,355.5918579z
					 M57.6373596,341.940155c-1.1515007,0-2.0854683-0.93396-2.0854683-2.0854492v-2.1004639
					c0-1.1514893,0.9339676-2.0854492,2.0854683-2.0854492s2.0854683,0.93396,2.0854683,2.0854492v2.1004639
					C59.7228279,341.0061951,58.7888603,341.940155,57.6373596,341.940155z M57.6373596,328.2884521
					c-1.1515007,0-2.0854683-0.93396-2.0854683-2.0854492v-2.1004639c0-1.1514893,0.9339676-2.0854492,2.0854683-2.0854492
					s2.0854683,0.93396,2.0854683,2.0854492v2.1004639C59.7228279,327.3544922,58.7888603,328.2884521,57.6373596,328.2884521z
					 M57.6373596,314.6367493c-1.1515007,0-2.0854683-0.93396-2.0854683-2.0854492v-2.1004639
					c0-1.1514893,0.9339676-2.0854492,2.0854683-2.0854492s2.0854683,0.93396,2.0854683,2.0854492V312.5513
					C59.7228279,313.7027893,58.7888603,314.6367493,57.6373596,314.6367493z M57.6373596,300.9850464
					c-1.1515007,0-2.0854683-0.93396-2.0854683-2.0854492v-2.1004639c0-1.1514893,0.9339676-2.0854492,2.0854683-2.0854492
					s2.0854683,0.93396,2.0854683,2.0854492v2.1004639C59.7228279,300.0510864,58.7888603,300.9850464,57.6373596,300.9850464z
					 M57.6373596,287.3333435c-1.1515007,0-2.0854683-0.93396-2.0854683-2.0854492v-2.1004639
					c0-1.1514893,0.9339676-2.0854492,2.0854683-2.0854492s2.0854683,0.93396,2.0854683,2.0854492v2.1004639
					C59.7228279,286.3993835,58.7888603,287.3333435,57.6373596,287.3333435z M57.6373596,273.6816406
					c-1.1515007,0-2.0854683-0.93396-2.0854683-2.0854492v-2.0996704c0-1.1514893,0.9339676-2.0854797,2.0854683-2.0854797
					s2.0854683,0.9339905,2.0854683,2.0854797v2.0996704C59.7228279,272.7476807,58.7888603,273.6816406,57.6373596,273.6816406z
					 M57.6373596,260.0299377c-1.1515007,0-2.0854683-0.93396-2.0854683-2.0854492v-2.0996704
					c0-1.1514893,0.9339676-2.0854645,2.0854683-2.0854645s2.0854683,0.9339752,2.0854683,2.0854645v2.0996704
					C59.7228279,259.0959778,58.7888603,260.0299377,57.6373596,260.0299377z M57.6373596,246.3782501
					c-1.1515007,0-2.0854683-0.9339752-2.0854683-2.0854797v-2.0996552c0-1.1514893,0.9339676-2.0854645,2.0854683-2.0854645
					s2.0854683,0.9339752,2.0854683,2.0854645v2.0996552C59.7228279,245.4442749,58.7888603,246.3782501,57.6373596,246.3782501z
					 M57.6373596,232.7265472c-1.1515007,0-2.0854683-0.9339752-2.0854683-2.0854797v-2.0996552
					c0-1.1514893,0.9339676-2.0854645,2.0854683-2.0854645s2.0854683,0.9339752,2.0854683,2.0854645v2.0996552
					C59.7228279,231.792572,58.7888603,232.7265472,57.6373596,232.7265472z M57.6373596,219.0748444
					c-1.1515007,0-2.0854683-0.9339752-2.0854683-2.0854797v-2.0996552c0-1.1514893,0.9339676-2.0854645,2.0854683-2.0854645
					s2.0854683,0.9339752,2.0854683,2.0854645v2.0996552C59.7228279,218.1408691,58.7888603,219.0748444,57.6373596,219.0748444z
					 M57.6373596,205.4231415c-1.1515007,0-2.0854683-0.9339752-2.0854683-2.0854797v-2.0996552
					c0-1.1514893,0.9339676-2.0854645,2.0854683-2.0854645s2.0854683,0.9339752,2.0854683,2.0854645v2.0996552
					C59.7228279,204.4891663,58.7888603,205.4231415,57.6373596,205.4231415z M57.6373596,191.7714386
					c-1.1515007,0-2.0854683-0.9339752-2.0854683-2.0854797v-2.0996552c0-1.1514893,0.9339676-2.0854645,2.0854683-2.0854645
					s2.0854683,0.9339752,2.0854683,2.0854645v2.0996552C59.7228279,190.8374634,58.7888603,191.7714386,57.6373596,191.7714386z
					 M57.6373596,178.1197357c-1.1515007,0-2.0854683-0.9339752-2.0854683-2.0854797v-2.0996552
					c0-1.1514893,0.9339676-2.0854645,2.0854683-2.0854645s2.0854683,0.9339752,2.0854683,2.0854645v2.0996552
					C59.7228279,177.1857605,58.7888603,178.1197357,57.6373596,178.1197357z"/>
			</g>
		</g>
	</g>
	<g style="opacity:0.08;">
		<g>
			<g>
				<path d="M229.745575,315.9358521c0,5.8326111-0.891098,11.1749573-4.374054,15.3140564
					c-4.3645325,5.1874695-12.1131897,8.4848633-19.425354,8.4848633c-9.2210541,0-16.6157227-5.2451172-20.5658264-12.9159851
					c-1.680542-3.2618408-3.2325897-6.9615784-3.2325897-10.8829346c0-5.0508118,2.479599-10.9419556,5.1644745-14.795105
					c4.2992096-6.1706848,10.6147614-7.9318542,18.6339417-9.0024109c8.5639343-1.1433411,14.9360809,3.2666626,19.243042,7.5741272
					C229.4961853,304.0184326,229.745575,309.364624,229.745575,315.9358521"/>
			</g>
			<g>
				<path d="M207.1806641,330.1721802v16.5150452c0,0.6819763,0.1477356,1.6239624-0.5352325,1.6239624
					c-0.6810913,0-1.9328613-0.9419861-1.9328613-1.6239624v-16.3145752"/>
			</g>
			<g>
				<path d="M204.7125702,331.5660095v-44.0233154c0-0.681488,0.5525055-2.0532227,1.2335968-2.0532227
					c0.6819763,0,1.2344971,1.3717346,1.2344971,2.0532227v43.8223267"/>
			</g>
			<g>
				<path d="M208.8536224,319.0715942l-28.0765991,6.3764648c-0.675293,0.0958557-2.813446,0.159729-2.908432-0.5141907
					c-0.0948944-0.6758118,0.5764771-1.2311707,1.378479-1.6608887l29.1086731-6.6134033"/>
			</g>
			<g>
				<path d="M205.8195648,316.3602905l28.8103485-6.5458069c0.674408-0.0953674,2.5899811,0.1914368,2.6848755,0.8657532
					c0.0959625,0.6757813-2.0565338,1.5783691-2.7328186,1.6738586l-28.2636261,6.4187012"/>
			</g>
			<g>
				<path d="M224.5868073,336.707489l-4.7327728-4.7323914c-0.4824829-0.4815979-0.4824829-1.2633667,0-1.7453613
					c0.4814911-0.4814758,1.2622833-0.4814758,1.7447662,0l4.7338562,4.7323914
					c0.4805145,0.4815063,0.8421783,2.0263672,0.3606873,2.5083618
					C226.4524841,337.7107544,224.827652,336.9487305,224.5868073,336.707489"/>
			</g>
			<g>
				<path d="M191.3237305,303.7296448c-0.3155975,0-0.6321716-0.1203308-0.8719482-0.3611755l-7.9664307-7.9658203
					c-0.4814911-0.4819946-0.8431549-1.6244507-0.3606873-2.1060486c0.4806213-0.4824829,1.624939-0.1213074,2.1065369,0.3606873
					l7.9653473,7.9659424c0.4815979,0.4814758,0.4815979,1.2632446,0,1.7452393
					C191.9558105,303.609314,191.639328,303.7296448,191.3237305,303.7296448"/>
			</g>
			<g>
				<path d="M186.2043457,337.6134033c-0.3270874,0.2033386-1.8426971,0.6777649-2.0834503,0.4365234
					c-0.4815979-0.4825745-0.4815979-1.2643433,0-1.7458496l4.4364319-4.4364319
					c0.4815063-0.4815063,1.2632599-0.4815063,1.7447662,0c0.4824829,0.4815063,0.4824829,1.2632751,0,1.7457581
					l-3.0905457,3.0901489C186.9706879,336.9448853,186.9410248,337.1563721,186.2043457,337.6134033"/>
			</g>
			<g>
				<path d="M220.1600037,299.3446045c-0.3155975,0-0.6311798-0.1204224-0.8719482-0.3611755
					c-0.4824829-0.4819946-0.4824829-1.2632751,0-1.7453613l4.8690186-4.7683411
					c0.4815979-0.4819641,1.2106171-0.4124451,1.4024506,0.2408447c0.2705078,0.9189148-0.3424988,2.0886841-0.8249969,2.5702515
					l-3.7015991,3.7026062C220.7921753,299.2241821,220.4765778,299.3446045,220.1600037,299.3446045"/>
			</g>
			<g>
				<g>
					<defs>
						<rect id="SVGID_69_" x="182.1650543" y="293.3699646" width="4.8824558" height="5.9338641"/>
					</defs>
					<clipPath id="SVGID_70_">
						<use xlink:href="#SVGID_69_"  style="overflow:visible;"/>
					</clipPath>
					<g style="clip-path:url(#SVGID_70_);">
						<g>
							<defs>
								<rect id="SVGID_71_" x="182.1650543" y="293.3699646" width="4.8824558" height="5.9338641"/>
							</defs>
							<clipPath id="SVGID_72_">
								<use xlink:href="#SVGID_71_"  style="overflow:visible;"/>
							</clipPath>
							<g style="clip-path:url(#SVGID_72_);">
								<path style="fill:#292929;" d="M186.7500763,298.7239075c-2.5073853-2.2483521-2.9477234-3.265686-3.5069122-3.9884033
									c0.00383-0.0259399,0.0863342-0.1885071,0.1333771-0.5534973c0.0028534-0.0196533,0.0163269,0.0843506-0.0518494-0.3323975
									c-0.0517731-0.3136292-0.2119751-0.415802-0.3367157-0.4460449
									c-0.2675781-0.0637512-0.4498749-0.0301514-0.4996796,0.0455627c-0.41922,0.6340637-1.2393951,0.742981,3.7294006,5.3136902
									c0.1209259,0.1116638,0.6772614,0.6483765,0.7817841,0.5222473
									C187.1127319,299.1507874,187.0205994,298.9666138,186.7500763,298.7239075"/>
							</g>
						</g>
					</g>
				</g>
			</g>
			<g>
				<g>
					<defs>
						<rect id="SVGID_73_" x="204.9035187" y="285.9014282" width="1.5750362" height="6.1626301"/>
					</defs>
					<clipPath id="SVGID_74_">
						<use xlink:href="#SVGID_73_"  style="overflow:visible;"/>
					</clipPath>
					<g style="clip-path:url(#SVGID_74_);">
						<g>
							<defs>
								<rect id="SVGID_75_" x="204.9035187" y="285.9014282" width="1.5750362" height="6.1626301"/>
							</defs>
							<clipPath id="SVGID_76_">
								<use xlink:href="#SVGID_75_"  style="overflow:visible;"/>
							</clipPath>
							<g style="clip-path:url(#SVGID_76_);">
								<path style="fill:#292929;" d="M205.2670441,290.4468079c-0.1410522-3.0081482,0.0652161-2.5228271,0.1735687-3.4307251
									c0.0202332-0.0153198,0.4211884,0.1400757,0.7108459-0.0873108c0.0163116-0.0119934-0.0470428,0.071991,0.1966553-0.2723694
									c0.1831818-0.260498,0.1400604-0.4460449,0.0718994-0.5549622c-0.1447906-0.232605-0.4488983-0.2048035-0.5390625-0.1903687
									l-0.0278015,0.0057983c-0.6532898,0.1567688-1.1405792,0.8757629-0.8757629,5.4353638
									c0.0095215,0.1650085-0.0662079,0.7276611,0.0978241,0.7113342
									C205.2478943,292.0472717,205.2833557,290.809845,205.2670441,290.4468079"/>
							</g>
						</g>
					</g>
				</g>
			</g>
			<g>
				<g>
					<defs>
						<rect id="SVGID_77_" x="221.1086578" y="292.3384094" width="4.3712044" height="3.6027911"/>
					</defs>
					<clipPath id="SVGID_78_">
						<use xlink:href="#SVGID_77_"  style="overflow:visible;"/>
					</clipPath>
					<g style="clip-path:url(#SVGID_78_);">
						<g>
							<defs>
								<rect id="SVGID_79_" x="221.1086578" y="292.3384094" width="4.3712044" height="3.6027911"/>
							</defs>
							<clipPath id="SVGID_80_">
								<use xlink:href="#SVGID_79_"  style="overflow:visible;"/>
							</clipPath>
							<g style="clip-path:url(#SVGID_80_);">
								<path style="fill:#292929;" d="M222.0957184,295.1872253c1.5808411-1.5870056,2.0681305-1.8713684,2.2474823-1.9936523
									c0.3769836-0.2546997,0.4220734,0.2790527,0.7913971,0.2991638
									c0.2224884,0.0124817,0.3567505-0.1865234,0.3442841-0.3974915c-0.014328-0.274353-0.1390839-0.4897461-0.2828827-0.6062622
									c-0.5199127-0.4249268-0.9401093-0.095459-3.7093658,2.8920288c-0.113266,0.1213074-0.4815979,0.4489136-0.350174,0.5477295
									C221.2765198,296.0328369,221.8396454,295.4457703,222.0957184,295.1872253"/>
							</g>
						</g>
					</g>
				</g>
			</g>
			<g>
				<g>
					<defs>
						<rect id="SVGID_81_" x="183.9415283" y="332.2920837" width="5.0896211" height="5.5889969"/>
					</defs>
					<clipPath id="SVGID_82_">
						<use xlink:href="#SVGID_81_"  style="overflow:visible;"/>
					</clipPath>
					<g style="clip-path:url(#SVGID_82_);">
						<g>
							<defs>
								<rect id="SVGID_83_" x="183.9415283" y="332.2920837" width="5.0896211" height="5.5889969"/>
							</defs>
							<clipPath id="SVGID_84_">
								<use xlink:href="#SVGID_83_"  style="overflow:visible;"/>
							</clipPath>
							<g style="clip-path:url(#SVGID_84_);">
								<path style="fill:#292929;" d="M188.7107544,332.8609009c-4.8076172,3.4532776-3.5807953,4.2805481-3.6699829,4.6939697
									c-0.0671844,0.3103943-0.5218658,0.3995667-0.7002411,0.2671814
									c-0.5390472-0.4004822-1.3554077-0.7160645,3.8398132-5.0268555
									c0.1266022-0.105011,0.7097626-0.6129456,0.8085785-0.4815063
									C189.0944214,332.4532776,189.0062103,332.6494141,188.7107544,332.8609009"/>
							</g>
						</g>
					</g>
				</g>
			</g>
			<g>
				<g>
					<defs>
						<rect id="SVGID_85_" x="204.9246368" y="341.4700012" width="2.1553488" height="6.6014009"/>
					</defs>
					<clipPath id="SVGID_86_">
						<use xlink:href="#SVGID_85_"  style="overflow:visible;"/>
					</clipPath>
					<g style="clip-path:url(#SVGID_86_);">
						<g>
							<defs>
								<rect id="SVGID_87_" x="204.9246368" y="341.4700012" width="2.1553488" height="6.6014009"/>
							</defs>
							<clipPath id="SVGID_88_">
								<use xlink:href="#SVGID_87_"  style="overflow:visible;"/>
							</clipPath>
							<g style="clip-path:url(#SVGID_88_);">
								<path style="fill:#292929;" d="M205.4157562,343.0872803c-0.1400604,3.0081482,0.0652161,2.5237122,0.1735687,3.430603
									c0.1592255,0.5611572,0.6062469,0.5113525,1.3371277,0.6110535c0.3147125,0.0427246,0.058548,0.7237244-0.010498,0.8335571
									c-0.1439056,0.2331848-0.7117462,0.0235596-0.7952423-0.0128784
									c-1.5164948-0.6709595-1.2584534-1.2076721-0.9947205-5.7673645
									c0.0106049-0.1645203-0.0661011-0.7275696,0.0988159-0.7112427
									C205.3974915,341.4873047,205.4329529,342.7241516,205.4157562,343.0872803"/>
							</g>
						</g>
					</g>
				</g>
			</g>
			<g>
				<g>
					<defs>
						<rect id="SVGID_89_" x="222.1945343" y="333.4340515" width="4.3712044" height="3.6023982"/>
					</defs>
					<clipPath id="SVGID_90_">
						<use xlink:href="#SVGID_89_"  style="overflow:visible;"/>
					</clipPath>
					<g style="clip-path:url(#SVGID_90_);">
						<path style="fill:#292929;" d="M223.1806183,334.1875305c1.5808258,1.5874939,2.0690002,1.8719482,2.2484589,1.9937744
							c0.3768921,0.255188,0.4219818-0.2786865,0.7903137-0.2988281c0.2235718-0.0129395,0.3578339,0.1861572,0.3453674,0.397644
							c-0.0153198,0.2738342-0.1390839,0.4882507-0.2829742,0.6057434c-0.5199127,0.425415-0.9400177,0.095459-3.7102661-2.8916626
							c-0.1122742-0.1213074-0.4806061-0.4493713-0.3491821-0.547699
							C222.3623962,333.3424988,222.9245453,333.9299622,223.1806183,334.1875305"/>
					</g>
				</g>
			</g>
			<g>
				<g>
					<defs>
						<rect id="SVGID_91_" x="178.1381073" y="322.7573853" width="5.2729087" height="2.0373809"/>
					</defs>
					<clipPath id="SVGID_92_">
						<use xlink:href="#SVGID_91_"  style="overflow:visible;"/>
					</clipPath>
					<g style="clip-path:url(#SVGID_92_);">
						<path style="fill:#292929;" d="M183.1501465,322.7655334c-1.5309448,0.1434021-4.3001862,0.9203796-4.6743317,1.4417419
							c-0.3721771,0.5217896-0.5218658,0.6968079,0,0.5217896c0.5227509-0.173584,1.3332977-0.7453308,2.8297729-1.1678162
							C182.8019257,323.1387024,183.9453735,322.6907043,183.1501465,322.7655334"/>
					</g>
				</g>
			</g>
			<g>
				<g>
					<defs>
						<rect id="SVGID_93_" x="231.7647858" y="310.4447021" width="5.2383337" height="2.1261761"/>
					</defs>
					<clipPath id="SVGID_94_">
						<use xlink:href="#SVGID_93_"  style="overflow:visible;"/>
					</clipPath>
					<g style="clip-path:url(#SVGID_94_);">
						<path style="fill:#292929;" d="M232.0266571,312.5598755c1.5279846-0.1698303,4.2838898-0.9947205,4.6473999-1.5222778
							c0.3645172-0.5285645,0.5102844-0.7060547-0.0086365-0.5223694c-0.5189056,0.182312-1.3198547,0.7687988-2.8086395,1.2177734
							C232.3680878,312.181427,231.2324066,312.647583,232.0266571,312.5598755"/>
					</g>
				</g>
			</g>
			<g>
				<g>
					<defs>
						<rect id="SVGID_95_" x="186.2148743" y="293.2348022" width="24.1907196" height="12.512084"/>
					</defs>
					<clipPath id="SVGID_96_">
						<use xlink:href="#SVGID_95_"  style="overflow:visible;"/>
					</clipPath>
					<g style="clip-path:url(#SVGID_96_);">
						<path style="fill:#292929;" d="M193.2075806,296.6251526c-6.2896271,3.2623291-9.7975311,8.8919983-4.1649323,9.1193848
							c1.9175415,0.0762329,0.9850922-1.5117798,5.8177643-6.0340576c1.4560852-1.3635559,7.269043-4.8435669,11.6191254-5.0646667
							c9.93367-0.5060425-1.4043274-2.5822449-7.3688354-0.5060425
							C197.7716064,294.6050415,194.3260651,296.0453186,193.2075806,296.6251526"/>
					</g>
				</g>
			</g>
			<g>
				<g>
					<defs>
						<rect id="SVGID_97_" x="188.9150696" y="297.7498169" width="40.8305092" height="41.9849548"/>
					</defs>
					<clipPath id="SVGID_98_">
						<use xlink:href="#SVGID_97_"  style="overflow:visible;"/>
					</clipPath>
					<g style="clip-path:url(#SVGID_98_);">
						<path style="fill:#292929;" d="M225.1902008,299.7124634c-0.6589966-0.6589966-1.3668976-1.319458-2.1218567-1.9626465
							c3.6296997,4.1717224,3.8522797,9.2762756,3.8522797,15.4685669c0,5.8325806-0.891098,11.1759338-4.374054,15.3140259
							c-4.365509,5.1874695-12.1140747,8.484375-19.4253387,8.484375c-5.5002136,0-10.3490753-1.8666687-14.2061615-4.9995422
							c4.1813202,4.742981,10.0881805,7.7175293,17.0320892,7.7175293c7.3111725,0,15.0588531-3.2964172,19.4243622-8.4848633
							c3.4829559-4.1390991,4.374054-9.4814453,4.374054-15.3140564
							C229.745575,309.364624,229.4971619,304.0184326,225.1902008,299.7124634"/>
					</g>
				</g>
			</g>
			<g>
				<path d="M206.4785004,355.7712402c-0.7007141,0-1.2690582-0.5683289-1.2690582-1.269043v-0.6350098
					c0-0.7007141,0.5683441-1.2690735,1.2690582-1.2690735s1.2690582,0.5683594,1.2690582,1.2690735v0.6350098
					C207.7475586,355.2029114,207.1792145,355.7712402,206.4785004,355.7712402z"/>
			</g>
			<g>
				<path d="M206.4785004,397.3077087c-0.7007141,0-1.2690582-0.5683289-1.2690582-1.269043v-1.27771
					c0-0.7007141,0.5683441-1.269043,1.2690582-1.269043s1.2690582,0.5683289,1.2690582,1.269043v1.27771
					C207.7475586,396.7393799,207.1792145,397.3077087,206.4785004,397.3077087z M206.4785004,389.0003357
					c-0.7007141,0-1.2690582-0.5683594-1.2690582-1.2690735v-1.2776794c0-0.7007141,0.5683441-1.2690735,1.2690582-1.2690735
					s1.2690582,0.5683594,1.2690582,1.2690735v1.2776794C207.7475586,388.4319763,207.1792145,389.0003357,206.4785004,389.0003357z
					 M206.4785004,380.6929321c-0.7007141,0-1.2690582-0.5683289-1.2690582-1.269043v-1.27771
					c0-0.7007141,0.5683441-1.269043,1.2690582-1.269043s1.2690582,0.5683289,1.2690582,1.269043v1.27771
					C207.7475586,380.1246033,207.1792145,380.6929321,206.4785004,380.6929321z M206.4785004,372.3855286
					c-0.7007141,0-1.2690582-0.5683289-1.2690582-1.269043v-1.2776794c0-0.7007141,0.5683441-1.2690735,1.2690582-1.2690735
					s1.2690582,0.5683594,1.2690582,1.2690735v1.2776794C207.7475586,371.8171997,207.1792145,372.3855286,206.4785004,372.3855286z
					 M206.4785004,364.0781555c-0.7007141,0-1.2690582-0.5683594-1.2690582-1.2690735v-1.2776794
					c0-0.7007141,0.5683441-1.269043,1.2690582-1.269043s1.2690582,0.5683289,1.2690582,1.269043v1.2776794
					C207.7475586,363.5097961,207.1792145,364.0781555,206.4785004,364.0781555z"/>
			</g>
		</g>
	</g>
</g>
</svg>
