<svg xmlns="http://www.w3.org/2000/svg" xmlns:xlink="http://www.w3.org/1999/xlink" viewBox="6480 373 335 516.692">
  <defs>
    <style>
      .cls-1 {
        fill: #8ed8f8;
      }

      .cls-2 {
        opacity: 0.12;
      }

      .cls-3 {
        clip-path: url(#clip-path);
      }

      .cls-4 {
        fill: #292929;
      }

      .cls-5 {
        clip-path: url(#clip-path-3);
      }

      .cls-6 {
        clip-path: url(#clip-path-5);
      }

      .cls-7 {
        clip-path: url(#clip-path-7);
      }

      .cls-8 {
        clip-path: url(#clip-path-9);
      }

      .cls-9 {
        clip-path: url(#clip-path-11);
      }

      .cls-10 {
        clip-path: url(#clip-path-12);
      }

      .cls-11 {
        clip-path: url(#clip-path-13);
      }

      .cls-12 {
        clip-path: url(#clip-path-14);
      }

      .cls-13 {
        clip-path: url(#clip-path-15);
      }

      .cls-14, .cls-15, .cls-26 {
        fill: none;
      }

      .cls-14, .cls-15 {
        stroke: #000;
        stroke-linecap: round;
        stroke-miterlimit: 10;
        stroke-width: 2.584px;
      }

      .cls-15 {
        stroke-dasharray: 1.301 7.156;
      }

      .cls-16 {
        opacity: 0.05;
      }

      .cls-17 {
        clip-path: url(#clip-path-16);
      }

      .cls-18 {
        clip-path: url(#clip-path-18);
      }

      .cls-19 {
        clip-path: url(#clip-path-20);
      }

      .cls-20 {
        clip-path: url(#clip-path-22);
      }

      .cls-21 {
        clip-path: url(#clip-path-24);
      }

      .cls-22 {
        clip-path: url(#clip-path-27);
      }

      .cls-23 {
        clip-path: url(#clip-path-28);
      }

      .cls-24 {
        clip-path: url(#clip-path-29);
      }

      .cls-25 {
        clip-path: url(#clip-path-30);
      }

      .cls-27 {
        fill: #1387c8;
      }

      .cls-28 {
        clip-path: url(#clip-path-31);
      }

      .cls-29 {
        fill: #0979b2;
      }

      .cls-30 {
        clip-path: url(#clip-path-33);
      }

      .cls-31 {
        fill: #043957;
        opacity: 0.3;
      }

      .cls-32 {
        fill: #1d668a;
      }

      .cls-33 {
        fill: #58afdb;
      }

      .cls-34 {
        fill: #276886;
      }

      .cls-35 {
        clip-path: url(#clip-path-38);
      }

      .cls-36 {
        fill: #4396c0;
      }

      .cls-37 {
        clip-path: url(#clip-path-39);
      }

      .cls-38 {
        clip-path: url(#clip-path-40);
      }

      .cls-39 {
        clip-path: url(#clip-path-41);
      }

      .cls-40 {
        clip-path: url(#clip-path-42);
      }

      .cls-41 {
        clip-path: url(#clip-path-43);
      }

      .cls-42 {
        clip-path: url(#clip-path-44);
      }

      .cls-43 {
        clip-path: url(#clip-path-45);
      }

      .cls-44 {
        clip-path: url(#clip-path-46);
      }

      .cls-45 {
        clip-path: url(#clip-path-47);
      }

      .cls-46 {
        clip-path: url(#clip-path-48);
      }

      .cls-47 {
        clip-path: url(#clip-path-49);
      }

      .cls-48 {
        clip-path: url(#clip-path-50);
      }

      .cls-49 {
        clip-path: url(#clip-path-51);
      }

      .cls-50 {
        clip-path: url(#clip-path-52);
      }

      .cls-51 {
        clip-path: url(#clip-path-53);
      }

      .cls-52 {
        fill: #0a1c37;
      }

      .cls-53 {
        fill: #fff;
      }

      .cls-54 {
        fill: #bea12f;
      }

      .cls-55 {
        fill: #fcd512;
      }

      .cls-56 {
        fill: #010101;
      }

      .cls-57 {
        fill: #fdf4cb;
      }
    </style>
    <clipPath id="clip-path">
      <rect id="Rectangle_245" data-name="Rectangle 245" width="5" height="6" transform="translate(4.4 8)"/>
    </clipPath>
    <clipPath id="clip-path-3">
      <rect id="Rectangle_247" data-name="Rectangle 247" width="1.6" height="6.3" transform="translate(27.5 0.4)"/>
    </clipPath>
    <clipPath id="clip-path-5">
      <rect id="Rectangle_249" data-name="Rectangle 249" width="4.5" height="3.7" transform="translate(44 7)"/>
    </clipPath>
    <clipPath id="clip-path-7">
      <rect id="Rectangle_251" data-name="Rectangle 251" width="5.2" height="5.7" transform="translate(6.2 47.6)"/>
    </clipPath>
    <clipPath id="clip-path-9">
      <rect id="Rectangle_253" data-name="Rectangle 253" width="2.2" height="6.7" transform="translate(27.6 57)"/>
    </clipPath>
    <clipPath id="clip-path-11">
      <rect id="Rectangle_254" data-name="Rectangle 254" width="4.5" height="3.7" transform="translate(45.1 48.8)"/>
    </clipPath>
    <clipPath id="clip-path-12">
      <rect id="Rectangle_255" data-name="Rectangle 255" width="5.4" height="2.1" transform="translate(0.3 37.9)"/>
    </clipPath>
    <clipPath id="clip-path-13">
      <rect id="Rectangle_256" data-name="Rectangle 256" width="5.3" height="2.2" transform="translate(54.9 25.4)"/>
    </clipPath>
    <clipPath id="clip-path-14">
      <rect id="Rectangle_257" data-name="Rectangle 257" width="24.6" height="12.7" transform="translate(8.5 7.9)"/>
    </clipPath>
    <clipPath id="clip-path-15">
      <rect id="Rectangle_258" data-name="Rectangle 258" width="41.6" height="42.7" transform="translate(11.3 12.5)"/>
    </clipPath>
    <clipPath id="clip-path-16">
      <rect id="Rectangle_260" data-name="Rectangle 260" width="5.786" height="6.943"/>
    </clipPath>
    <clipPath id="clip-path-18">
      <rect id="Rectangle_262" data-name="Rectangle 262" width="1.851" height="7.29"/>
    </clipPath>
    <clipPath id="clip-path-20">
      <rect id="Rectangle_264" data-name="Rectangle 264" width="5.207" height="4.281"/>
    </clipPath>
    <clipPath id="clip-path-22">
      <rect id="Rectangle_266" data-name="Rectangle 266" width="6.017" height="6.596"/>
    </clipPath>
    <clipPath id="clip-path-24">
      <rect id="Rectangle_268" data-name="Rectangle 268" width="2.546" height="7.753"/>
    </clipPath>
    <clipPath id="clip-path-27">
      <rect id="Rectangle_270" data-name="Rectangle 270" width="6.248" height="2.43"/>
    </clipPath>
    <clipPath id="clip-path-28">
      <rect id="Rectangle_271" data-name="Rectangle 271" width="6.133" height="2.546"/>
    </clipPath>
    <clipPath id="clip-path-29">
      <rect id="Rectangle_272" data-name="Rectangle 272" width="28.465" height="14.695"/>
    </clipPath>
    <clipPath id="clip-path-30">
      <rect id="Rectangle_273" data-name="Rectangle 273" width="48.136" height="49.409"/>
    </clipPath>
    <clipPath id="clip-path-31">
      <path id="Path_107" data-name="Path 107" d="M177.585,168.891c27.594-3.254,50.582-31.566,38.961-61.865-15.762-40.99-61.4-33.468-80.543-6.93-7.86,10.945-6.55,34.693-6.55,34.693s-11.2-12.846-21.044-23.876c-15.973-17.875-20.072-53.2-11.452-69.3,13.734-25.693,24-28.946,35.285-26.876,1.1.211,2.493,1.183,2.7,3.8.465,5.789-11.536,2.071-11.832,1.775-1.817-2.028,6.339,9.254,13.565,4.141,4.86-3.423,3.338-11.325,1.014-13.227a10.642,10.642,0,0,0-5.029-2.2,33.581,33.581,0,0,0-20.495,2.2A48.382,48.382,0,0,0,86.689,32.737C76.759,49.471,73,60.711,73.674,81.882c.549,16.649,3.423,31.355,17.41,46.61,1.056,1.183,2.2,2.324,3.423,3.507,2.747,2.662.127,1.733-1.606.592-26.157-17.241-46.23-7.86-53.709.38-17.072,18.762-15.382,31.862,0,55.78,10.226,15.889,13.311,23.284,4.479,33.172-7.564,8.494-23.284,3.169-22.9-4.057.211-3.634,5.874-6.17,7.142-2.282,1.564,4.606,5.789.887,4.141-1.859-7.818-13.1-24.636.718-14.663,13.184,7.437,9.3,32.538,9.466,43.483-6.888,15.17-22.65-25.862-50.751-8.916-65.584,16.354-14.325,37.144,3.423,43.4,6.592,5.747,2.916,14.452,5.832,2.2,14.283-20.495,14.072-13.734,39.088-13.776,58.1-.042,27.763-24.974,25.27-39.511,19.185a39.233,39.233,0,0,1,6.677-10.142c3.93-4.184,2.578-4.86,1.395-4.944-1.268-.085-7.944,4.817-9.846,7.1a32.506,32.506,0,0,0-3.761,5.7c-21.847-8.282-28.946-1.648-31.566-.634C1.2,251.969-6.024,257.758,9.1,253.406c9.973-2.874,17.579.718,26.326,5.113-2.874,11.071-.085,24.932,23.875,31.989,28.777,7.9,60.64,2.366,84.684-28.735,11.071-14.325,18.086-34.567,16.1-51.934-1.141-10.142-2.366-16.523.634-15.72,3.085.8,19.143,7.522,23.157,18.213,9.212,24.636-1.775,30.51-25.608,45.807-5.324,3.423-7.944,11.663-7.606,17.072-1.352-1.141-2.916-1.986-3.972-1.775-2.24.465-4.141,5.747-3.465,8.452.8,3.127,1.564,8.367,9.254,8.2,7.987-.169,11.579-4.9,10.818-8.2-.845-3.8-3.634-13.9,7.015-17.959,39.68-15.086,42.934-35.665,36.764-58.991C203.4,191.245,186.882,175.018,177.585,168.891ZM96.366,274.239c-23.58,7.437-41.455,2.958-49.441-3.55a11.887,11.887,0,0,1-4.648-8.747c8.705,4.057,19.058,7.606,33.848,6.465,32.116-2.535,30.552-34.1,29.876-53.963-.634-18.044,9.931-21.382,16.269-23.115,13.438-3.676,13.48,15.213,13.565,23.284C135.962,229.319,129.2,263.843,96.366,274.239Z" transform="translate(-0.106 -8.321)"/>
    </clipPath>
    <clipPath id="clip-path-33">
      <path id="Path_111" data-name="Path 111" d="M197,168.915c27.594-3.254,50.582-31.566,38.961-61.865-15.762-40.99-61.4-33.468-80.543-6.93-7.86,10.945-6.55,34.693-6.55,34.693s-11.2-12.846-21.044-23.875c-15.973-17.875-20.072-53.2-11.452-69.3,13.734-25.693,24-28.946,35.285-26.876,1.1.211,2.493,1.183,2.7,3.8.465,5.789-5.493,11.029,1.733,5.916,4.86-3.423,3.338-11.325,1.014-13.227a10.642,10.642,0,0,0-5.029-2.2,33.913,33.913,0,0,0-20.495,2.2A48.382,48.382,0,0,0,106.1,32.761C96.172,49.495,92.411,60.735,93.087,81.906c.549,16.649,3.423,31.355,17.41,46.61,1.056,1.183,2.2,2.324,3.423,3.507,2.747,2.662.127,1.733-1.606.592-26.157-17.241-46.23-7.86-53.709.38-17.072,18.762-15.382,31.862,0,55.78,10.226,15.889,13.311,23.284,4.479,33.172-7.564,8.494-23.284,3.169-22.9-4.057.211-3.634,5.874-6.17,7.142-2.282,1.564,4.606,5.789.887,4.141-1.859-7.818-13.1-24.636.718-14.663,13.184,7.437,9.3,32.538,9.466,43.483-6.888,15.17-22.65-25.862-50.751-8.916-65.584,16.354-14.325,37.144,3.423,43.4,6.592,5.747,2.916,14.452,5.832,2.2,14.283-20.495,14.072-13.734,39.088-13.776,58.1-.042,23.58-18,25.312-32.327,21.594V265.6a62.016,62.016,0,0,0,24.721,2.789c32.116-2.535,30.552-34.1,29.876-53.963-.634-18.044,9.931-21.382,16.269-23.115,13.438-3.676,13.48,15.213,13.565,23.284.127,14.706-6.634,49.23-39.426,59.583-23.58,7.437-41.455,2.958-49.441-3.55a11.887,11.887,0,0,1-4.648-8.747,24.656,24.656,0,0,1,1.944-9.339A39.233,39.233,0,0,1,70.4,242.4c3.93-4.184,2.578-4.86,1.395-4.944-1.268-.085-7.944,4.817-9.846,7.1a32.506,32.506,0,0,0-3.761,5.7,27.257,27.257,0,0,0-3.254,8.24c-2.874,11.071-.085,24.932,23.875,31.989,28.777,7.9,60.64,2.366,84.684-28.735,11.071-14.325,18.086-34.567,16.1-51.934-1.141-10.142-2.366-16.523.634-15.72,3.085.8,19.143,7.522,23.157,18.213,9.212,24.636-1.775,30.51-25.608,45.807-5.324,3.423-7.944,11.663-7.606,17.072-1.352-1.141-2.916-1.986-3.972-1.775-2.24.465-4.141,5.747-3.465,8.452.8,3.127,1.564,8.367,9.254,8.2,7.987-.169,11.579-4.9,10.818-8.2-.845-3.8-3.634-13.9,7.015-17.959,39.68-15.086,42.934-35.665,36.764-58.992C222.818,191.269,206.3,175.042,197,168.915Z" transform="translate(-33.727 -8.362)"/>
    </clipPath>
    <clipPath id="clip-path-38">
      <path id="Path_124" data-name="Path 124" d="M245.957,526.385c-1.141.338-1.31,1.9-1.521,3.465-.338,2.366-.042,4.9,1.944,4.31,1.268-.38,1.183-2.071,1.268-3.8.127-2.028.127-4.057-1.183-4.057a2.531,2.531,0,0,0-.507.084" transform="translate(-244.316 -526.3)"/>
    </clipPath>
    <clipPath id="clip-path-39">
      <path id="Path_129" data-name="Path 129" d="M249.3,462.757c-1.352.211-1.733,2.071-2.155,3.888-.634,2.789-.549,5.789,1.859,5.409,1.521-.254,1.606-2.282,1.9-4.31.38-2.451.592-4.986-1.268-4.986a.463.463,0,0,0-.338,0" transform="translate(-246.807 -462.725)"/>
    </clipPath>
    <clipPath id="clip-path-40">
      <path id="Path_134" data-name="Path 134" d="M107.109,632.452c-.38,1.394.93,2.324,2.2,3.254,1.9,1.479,4.31,2.324,4.944-.127.423-1.564-1.183-2.24-2.62-3.169a6.834,6.834,0,0,0-3.043-1.31c-.718,0-1.225.38-1.479,1.352" transform="translate(-107.042 -631.1)"/>
    </clipPath>
    <clipPath id="clip-path-41">
      <path id="Path_139" data-name="Path 139" d="M202.632,639.372c-1.859.676-3.676,1.521-2.409,3.169.761,1.014,2.155.592,3.465.254,2.071-.549,3.93-1.775,2.578-3.507a1.476,1.476,0,0,0-1.183-.592,6.719,6.719,0,0,0-2.451.676" transform="translate(-199.801 -638.692)"/>
    </clipPath>
    <clipPath id="clip-path-42">
      <path id="Path_144" data-name="Path 144" d="M146.56,645.578c.127.845,1.1,1.1,1.986,1.31,1.437.38,2.958.254,2.747-1.225-.127-.972-1.183-.972-2.24-1.141a6.359,6.359,0,0,0-1.225-.127c-.845-.042-1.437.254-1.268,1.183" transform="translate(-146.532 -644.391)"/>
    </clipPath>
    <clipPath id="clip-path-43">
      <path id="Path_149" data-name="Path 149" d="M435.929,500.369c-1.352.887-.634,2.451-.211,4.141.592,2.155,1.395,4.268,3.338,3,1.225-.8.845-2.366.592-3.888-.338-1.859-1.141-3.634-2.535-3.634a1.775,1.775,0,0,0-1.183.38" transform="translate(-435.145 -499.981)"/>
    </clipPath>
    <clipPath id="clip-path-44">
      <path id="Path_154" data-name="Path 154" d="M412.874,562.342c-1.268,1.479-2.451,3.085-.592,3.888,1.141.507,2.155-.507,3.127-1.437,1.521-1.479,2.578-3.423.549-4.268a1.659,1.659,0,0,0-.592-.127c-.972-.042-1.648.972-2.493,1.944" transform="translate(-411.318 -560.397)"/>
    </clipPath>
    <clipPath id="clip-path-45">
      <path id="Path_159" data-name="Path 159" d="M439.147,541.686c-.465,1.268-.8,2.62.592,2.662.887.042,1.268-.845,1.69-1.733.634-1.31.845-2.831-.718-2.916h-.042c-.93.042-1.141,1.014-1.521,1.986" transform="translate(-438.742 -539.7)"/>
    </clipPath>
    <clipPath id="clip-path-46">
      <path id="Path_164" data-name="Path 164" d="M199.851,354.448c-.3,1.564,1.31,2.155,2.831,3,1.944,1.056,4.057,1.986,4.479-.3.254-1.394-1.1-2.282-2.409-3.127a6.515,6.515,0,0,0-3.127-1.225,1.713,1.713,0,0,0-1.775,1.648" transform="translate(-199.816 -352.8)"/>
    </clipPath>
    <clipPath id="clip-path-47">
      <path id="Path_169" data-name="Path 169" d="M111.813,368.9c-1.564.718-1.479,2.62-1.437,4.479.042,2.916,1.056,5.747,3.8,4.522,1.775-.761,1.225-2.747,1.014-4.817-.254-2.24-.676-4.479-2.282-4.479a4.292,4.292,0,0,0-1.1.3" transform="translate(-110.36 -368.6)"/>
    </clipPath>
    <clipPath id="clip-path-48">
      <path id="Path_174" data-name="Path 174" d="M138.965,440.038c-1.268.718-1.014,2.324-.8,3.845.3,2.409,1.352,4.691,3.55,3.423,1.395-.8.8-2.409.423-4.1-.38-1.775-.887-3.507-2.155-3.507a2.2,2.2,0,0,0-1.014.338" transform="translate(-137.989 -439.7)"/>
    </clipPath>
    <clipPath id="clip-path-49">
      <path id="Path_179" data-name="Path 179" d="M142.635,499.5c-1.141,1.564-1.775,3.507.211,3.972,1.268.3,1.775-.972,2.493-2.2.93-1.564,1.69-3.212-.127-3.634a.931.931,0,0,0-.338-.042c-.93.042-1.606,1.014-2.24,1.9" transform="translate(-141.563 -497.6)"/>
    </clipPath>
    <clipPath id="clip-path-50">
      <path id="Path_184" data-name="Path 184" d="M147.2,335.573c.042,2.282,2.409,2.662,4.775,3.381,3.043.93,6.212,1.606,6.17-1.69,0-2.071-2.155-2.831-4.226-3.676a10.3,10.3,0,0,0-3.8-.887c-1.69,0-2.916.761-2.916,2.874" transform="translate(-147.2 -332.7)"/>
    </clipPath>
    <clipPath id="clip-path-51">
      <path id="Path_189" data-name="Path 189" d="M189.718,254.968c-1.479,1.859.211,3.719,1.648,5.832,1.817,2.747,3.93,5.324,6.043,2.662,1.31-1.648.127-3.676-.972-5.7-1.183-2.155-2.831-4.057-4.522-4.057a2.892,2.892,0,0,0-2.2,1.268" transform="translate(-189.146 -253.7)"/>
    </clipPath>
    <clipPath id="clip-path-52">
      <path id="Path_194" data-name="Path 194" d="M173,169.027c-1.437.38-1.268,1.944-1.352,3.507-.127,2.028-.042,4.1,2.028,3.55,1.268-.338,1.437-1.775,1.648-3.212.3-1.944,0-3.972-1.648-3.972-.254.042-.465.085-.676.127" transform="translate(-171.611 -168.9)"/>
    </clipPath>
    <clipPath id="clip-path-53">
      <path id="Path_199" data-name="Path 199" d="M174.02,217.227c-1.395.8-.761,2.409-.423,4.1.465,2.2,1.183,4.353,3.169,3.169,1.225-.718.972-2.324.8-3.845-.254-1.944-1.014-3.761-2.409-3.761a2,2,0,0,0-1.141.338" transform="translate(-173.157 -216.881)"/>
    </clipPath>
  </defs>
  <g id="Group_519" data-name="Group 519" transform="translate(5970)">
    <rect id="Rectangle_243" data-name="Rectangle 243" class="cls-1" width="335" height="515" transform="translate(510 373)"/>
    <g id="Group_471" data-name="Group 471" class="cls-2" transform="translate(539.01 501)">
      <g id="Group_470" data-name="Group 470">
        <path id="Path_212" data-name="Path 212" d="M52.8,31c0,5.9-.9,11.4-4.5,15.6-4.4,5.3-12.3,8.6-19.8,8.6-9.4,0-16.9-5.3-20.9-13.1C5.9,38.8,4.4,35,4.4,31c0-5.1,2.5-11.1,5.3-15.1,4.4-6.3,10.8-8.1,19-9.2,8.7-1.2,15.2,3.3,19.6,7.7,4.3,4.5,4.5,9.9,4.5,16.6"/>
        <path id="Path_213" data-name="Path 213" d="M29.9,45.5V62.3c0,.7.2,1.7-.5,1.7s-2-1-2-1.7V45.7"/>
        <path id="Path_214" data-name="Path 214" d="M27.3,46.9V2.1c0-.7.6-2.1,1.3-2.1s1.3,1.4,1.3,2.1V46.7"/>
        <path id="Path_215" data-name="Path 215" d="M31.6,34.2,3,40.7c-.7.1-2.9.2-3-.5s.6-1.3,1.4-1.7L31,31.7"/>
        <path id="Path_216" data-name="Path 216" d="M28.5,31.4l29.3-6.7c.7-.1,2.6.2,2.7.9s-2.1,1.6-2.8,1.7L29,33.9"/>
        <path id="Path_217" data-name="Path 217" d="M47.6,52.1l-4.8-4.8a1.273,1.273,0,0,1,1.8-1.8l4.8,4.8c.5.5.9,2.1.4,2.6-.3.3-2-.5-2.2-.8"/>
        <path id="Path_218" data-name="Path 218" d="M13.7,18.6a1.222,1.222,0,0,1-.9-.4L4.7,10.1a2.044,2.044,0,0,1-.4-2.2,2.044,2.044,0,0,1,2.2.4l8.1,8.1a1.267,1.267,0,0,1,0,1.8,1.489,1.489,0,0,1-.9.4"/>
        <path id="Path_219" data-name="Path 219" d="M8.5,53.1c-.3.2-1.9.7-2.1.4a1.267,1.267,0,0,1,0-1.8l4.5-4.5A1.273,1.273,0,0,1,12.7,49L9.6,52.1a5.822,5.822,0,0,1-1.1,1"/>
        <path id="Path_220" data-name="Path 220" d="M43.1,14.1a1.222,1.222,0,0,1-.9-.4,1.268,1.268,0,0,1,0-1.8l5-4.9a.8.8,0,0,1,1.4.2,2.957,2.957,0,0,1-.8,2.6L44,13.7a1.222,1.222,0,0,1-.9.4"/>
        <g id="Group_434" data-name="Group 434">
          <g id="Group_433" data-name="Group 433">
            <g id="Group_432" data-name="Group 432" class="cls-3">
              <g id="Group_431" data-name="Group 431">
                <g id="Group_430" data-name="Group 430" class="cls-3">
                  <path id="Path_221" data-name="Path 221" class="cls-4" d="M9.1,13.5A17.27,17.27,0,0,1,5.5,9.4a1.452,1.452,0,0,0,.1-.6s0,.1-.1-.3c0-.3-.2-.4-.3-.4-.3-.1-.4-.1-.5,0-.4.6-1.3.8,3.8,5.4.1.1.7.7.8.5.1-.1,0-.3-.2-.5"/>
                </g>
              </g>
            </g>
          </g>
        </g>
        <g id="Group_439" data-name="Group 439">
          <g id="Group_438" data-name="Group 438">
            <g id="Group_437" data-name="Group 437" class="cls-5">
              <g id="Group_436" data-name="Group 436">
                <g id="Group_435" data-name="Group 435" class="cls-5">
                  <path id="Path_222" data-name="Path 222" class="cls-4" d="M27.9,5a9.542,9.542,0,0,1,.2-3.4.981.981,0,0,0,.7-.1s0,.1.2-.3a.726.726,0,0,0,.1-.6c-.1-.2-.5-.2-.5-.2h0c-.7.2-1.2.9-.9,5.5,0,.2-.1.7.1.7A6.22,6.22,0,0,0,27.9,5"/>
                </g>
              </g>
            </g>
          </g>
        </g>
        <g id="Group_444" data-name="Group 444">
          <g id="Group_443" data-name="Group 443">
            <g id="Group_442" data-name="Group 442" class="cls-6">
              <g id="Group_441" data-name="Group 441">
                <g id="Group_440" data-name="Group 440" class="cls-6">
                  <path id="Path_223" data-name="Path 223" class="cls-4" d="M45,9.9a10.926,10.926,0,0,1,2.3-2c.4-.3.4.3.8.3a.43.43,0,0,0,.4-.4.6.6,0,0,0-.3-.6c-.5-.4-1-.1-3.8,2.9-.1.1-.5.5-.4.6.2,0,.8-.6,1-.8"/>
                </g>
              </g>
            </g>
          </g>
        </g>
        <g id="Group_449" data-name="Group 449">
          <g id="Group_448" data-name="Group 448">
            <g id="Group_447" data-name="Group 447" class="cls-7">
              <g id="Group_446" data-name="Group 446">
                <g id="Group_445" data-name="Group 445" class="cls-7">
                  <path id="Path_224" data-name="Path 224" class="cls-4" d="M11,48.2C6.1,51.7,7.4,52.6,7.3,53a.55.55,0,0,1-.7.3c-.5-.4-1.4-.7,3.9-5.1.1-.1.7-.6.8-.5s0,.3-.3.5"/>
                </g>
              </g>
            </g>
          </g>
        </g>
        <g id="Group_454" data-name="Group 454">
          <g id="Group_453" data-name="Group 453">
            <g id="Group_452" data-name="Group 452" class="cls-8">
              <g id="Group_451" data-name="Group 451">
                <g id="Group_450" data-name="Group 450" class="cls-8">
                  <path id="Path_225" data-name="Path 225" class="cls-4" d="M28.1,58.6a9.94,9.94,0,0,0,.2,3.5c.2.6.6.5,1.4.6.3,0,.1.7,0,.8-.1.2-.7,0-.8,0-1.5-.7-1.3-1.2-1-5.9,0-.2-.1-.7.1-.7,0,.1.1,1.4.1,1.7"/>
                </g>
              </g>
            </g>
          </g>
        </g>
        <g id="Group_457" data-name="Group 457">
          <g id="Group_456" data-name="Group 456">
            <g id="Group_455" data-name="Group 455" class="cls-9">
              <path id="Path_226" data-name="Path 226" class="cls-4" d="M46.1,49.6a10.926,10.926,0,0,0,2.3,2c.4.3.4-.3.8-.3a.43.43,0,0,1,.4.4.6.6,0,0,1-.3.6c-.5.4-1,.1-3.8-2.9-.1-.1-.5-.5-.4-.6.2-.1.8.5,1,.8"/>
            </g>
          </g>
        </g>
        <g id="Group_460" data-name="Group 460">
          <g id="Group_459" data-name="Group 459">
            <g id="Group_458" data-name="Group 458" class="cls-10">
              <path id="Path_227" data-name="Path 227" class="cls-4" d="M5.4,37.9C3.8,38,1,38.8.6,39.4c-.4.5-.5.7,0,.5a15.712,15.712,0,0,1,2.9-1.2c1.5-.4,2.7-.8,1.9-.8"/>
            </g>
          </g>
        </g>
        <g id="Group_463" data-name="Group 463">
          <g id="Group_462" data-name="Group 462">
            <g id="Group_461" data-name="Group 461" class="cls-11">
              <path id="Path_228" data-name="Path 228" class="cls-4" d="M55.1,27.6c1.6-.2,4.4-1,4.7-1.5.4-.5.5-.7,0-.5a13.026,13.026,0,0,1-2.9,1.2c-1.4.4-2.6.8-1.8.8"/>
            </g>
          </g>
        </g>
        <g id="Group_466" data-name="Group 466">
          <g id="Group_465" data-name="Group 465">
            <g id="Group_464" data-name="Group 464" class="cls-12">
              <path id="Path_229" data-name="Path 229" class="cls-4" d="M15.6,11.3c-6.4,3.3-10,9.1-4.2,9.3,2,.1,1-1.5,5.9-6.1,1.5-1.4,7.4-4.9,11.8-5.2,10.1-.5-1.4-2.6-7.5-.5-1.3.5-4.8,1.9-6,2.5"/>
            </g>
          </g>
        </g>
        <g id="Group_469" data-name="Group 469">
          <g id="Group_468" data-name="Group 468">
            <g id="Group_467" data-name="Group 467" class="cls-13">
              <path id="Path_230" data-name="Path 230" class="cls-4" d="M48.2,14.5c-.7-.7-1.4-1.3-2.2-2,3.7,4.2,3.9,9.4,3.9,15.7,0,5.9-.9,11.4-4.5,15.6-4.4,5.3-12.3,8.6-19.8,8.6a22.842,22.842,0,0,1-14.5-5.1,22.992,22.992,0,0,0,17.3,7.9c7.4,0,15.3-3.4,19.8-8.6,3.5-4.2,4.5-9.7,4.5-15.6.1-6.7-.1-12.1-4.5-16.5"/>
            </g>
          </g>
        </g>
        <line id="Line_2" data-name="Line 2" class="cls-14" y2="0.7" transform="translate(29.1 69.6)"/>
        <line id="Line_3" data-name="Line 3" class="cls-15" y2="305.6" transform="translate(29.1 77.4)"/>
      </g>
    </g>
    <g id="Group_513" data-name="Group 513" class="cls-16" transform="translate(771.502 638)">
      <g id="Group_512" data-name="Group 512" transform="translate(-0.01)">
        <path id="Path_231" data-name="Path 231" d="M60.4,34.849c0,6.827-1.041,13.191-5.207,18.051-5.091,6.133-14.233,9.951-22.911,9.951-10.877,0-19.555-6.133-24.184-15.158-1.967-3.818-3.7-8.216-3.7-12.844,0-5.9,2.893-12.844,6.133-17.472C15.624,10.087,23.03,8,32.518,6.731c10.067-1.389,17.588,3.818,22.679,8.91C60.173,20.848,60.4,27.1,60.4,34.849" transform="translate(0.702 1.022)"/>
        <path id="Path_232" data-name="Path 232" d="M30.293,45.5V64.94c0,.81.231,1.967-.579,1.967S27.4,65.75,27.4,64.94V45.731" transform="translate(4.316 7.149)"/>
        <path id="Path_233" data-name="Path 233" d="M27.3,54.269V2.43c0-.81.694-2.43,1.5-2.43s1.5,1.62,1.5,2.43V54.037" transform="translate(4.3)"/>
        <path id="Path_234" data-name="Path 234" d="M36.566,34.593,3.473,42.114c-.81.116-3.356.231-3.471-.579s.694-1.5,1.62-1.967L35.872,31.7" transform="translate(0.01 4.981)"/>
        <path id="Path_235" data-name="Path 235" d="M28.5,32.456,62.4,24.7c.81-.116,3.009.231,3.124,1.041s-2.43,1.851-3.24,1.967L29.079,35.348" transform="translate(4.489 3.878)"/>
        <path id="Path_236" data-name="Path 236" d="M48.413,53.2l-5.554-5.554a1.473,1.473,0,0,1,2.083-2.083L50.5,51.113c.579.579,1.041,2.43.463,3.008-.347.347-2.314-.579-2.546-.926" transform="translate(6.677 7.09)"/>
        <path id="Path_237" data-name="Path 237" d="M15.206,20.31a1.413,1.413,0,0,1-1.041-.463L4.792,10.475a2.365,2.365,0,0,1-.463-2.546,2.365,2.365,0,0,1,2.546.463l9.373,9.373a1.467,1.467,0,0,1,0,2.083,1.723,1.723,0,0,1-1.041.463" transform="translate(0.658 1.212)"/>
        <path id="Path_238" data-name="Path 238" d="M8.889,54.086c-.347.231-2.2.81-2.43.463a1.467,1.467,0,0,1,0-2.083l5.207-5.207a1.473,1.473,0,1,1,2.083,2.083l-3.587,3.587a6.737,6.737,0,0,1-1.273,1.157" transform="translate(0.958 7.357)"/>
        <path id="Path_239" data-name="Path 239" d="M43.3,15.266a1.413,1.413,0,0,1-1.041-.463,1.467,1.467,0,0,1,0-2.083l5.786-5.67a.926.926,0,0,1,1.62.231,3.422,3.422,0,0,1-.926,3.009l-4.4,4.513a1.413,1.413,0,0,1-1.041.463" transform="translate(6.582 1.05)"/>
        <g id="Group_476" data-name="Group 476" transform="translate(5.102 9.257)">
          <g id="Group_475" data-name="Group 475">
            <g id="Group_474" data-name="Group 474" class="cls-17">
              <g id="Group_473" data-name="Group 473">
                <g id="Group_472" data-name="Group 472" class="cls-17">
                  <path id="Path_240" data-name="Path 240" class="cls-4" d="M9.843,14.36A19.984,19.984,0,0,1,5.677,9.616a1.68,1.68,0,0,0,.116-.694s0,.116-.116-.347c0-.347-.231-.463-.347-.463C4.983,8,4.867,8,4.751,8.112c-.463.694-1.5.926,4.4,6.248.116.116.81.81.926.579.116-.116,0-.347-.231-.579" transform="translate(-4.404 -7.996)"/>
                </g>
              </g>
            </g>
          </g>
        </g>
        <g id="Group_481" data-name="Group 481" transform="translate(31.832 0.463)">
          <g id="Group_480" data-name="Group 480">
            <g id="Group_479" data-name="Group 479" class="cls-18">
              <g id="Group_478" data-name="Group 478">
                <g id="Group_477" data-name="Group 477" class="cls-18">
                  <path id="Path_241" data-name="Path 241" class="cls-4" d="M27.945,5.723a11.041,11.041,0,0,1,.231-3.934,1.135,1.135,0,0,0,.81-.116s0,.116.231-.347a.84.84,0,0,0,.116-.694C29.218.4,28.755.4,28.755.4h0c-.81.231-1.389,1.041-1.041,6.364,0,.231-.116.81.116.81a7.2,7.2,0,0,0,.116-1.851" transform="translate(-27.483 -0.4)"/>
                </g>
              </g>
            </g>
          </g>
        </g>
        <g id="Group_486" data-name="Group 486" transform="translate(50.924 8.1)">
          <g id="Group_485" data-name="Group 485">
            <g id="Group_484" data-name="Group 484" class="cls-19">
              <g id="Group_483" data-name="Group 483">
                <g id="Group_482" data-name="Group 482" class="cls-19">
                  <path id="Path_242" data-name="Path 242" class="cls-4" d="M45.16,10.346a12.643,12.643,0,0,1,2.661-2.314c.463-.347.463.347.926.347a.5.5,0,0,0,.463-.463.7.7,0,0,0-.347-.694c-.579-.463-1.157-.116-4.4,3.356-.116.116-.579.579-.463.694.231,0,.926-.694,1.157-.926" transform="translate(-44.002 -6.991)"/>
                </g>
              </g>
            </g>
          </g>
        </g>
        <g id="Group_491" data-name="Group 491" transform="translate(7.185 55.079)">
          <g id="Group_490" data-name="Group 490">
            <g id="Group_489" data-name="Group 489" class="cls-20">
              <g id="Group_488" data-name="Group 488">
                <g id="Group_487" data-name="Group 487" class="cls-20">
                  <path id="Path_243" data-name="Path 243" class="cls-4" d="M11.752,48.281c-5.67,4.05-4.166,5.091-4.281,5.554a.636.636,0,0,1-.81.347c-.579-.463-1.62-.81,4.513-5.9.116-.116.81-.694.926-.579s0,.347-.347.579" transform="translate(-6.198 -47.586)"/>
                </g>
              </g>
            </g>
          </g>
        </g>
        <g id="Group_496" data-name="Group 496" transform="translate(31.947 65.956)">
          <g id="Group_495" data-name="Group 495">
            <g id="Group_494" data-name="Group 494" class="cls-21">
              <g id="Group_493" data-name="Group 493">
                <g id="Group_492" data-name="Group 492" class="cls-21">
                  <path id="Path_244" data-name="Path 244" class="cls-4" d="M28.165,58.867c-.116,3.587.116,3.008.231,4.05.231.694.694.579,1.62.694.347,0,.116.81,0,.926-.116.231-.81,0-.926,0-1.736-.81-1.5-1.389-1.157-6.827,0-.231-.116-.81.116-.81,0,.116.116,1.62.116,1.967" transform="translate(-27.586 -57.016)"/>
                </g>
              </g>
            </g>
          </g>
        </g>
        <g id="Group_499" data-name="Group 499" transform="translate(52.197 56.467)">
          <g id="Group_498" data-name="Group 498">
            <g id="Group_497" data-name="Group 497" class="cls-19">
              <path id="Path_245" data-name="Path 245" class="cls-4" d="M46.26,49.727a12.643,12.643,0,0,0,2.661,2.314c.463.347.463-.347.926-.347a.5.5,0,0,1,.463.463.7.7,0,0,1-.347.694c-.579.463-1.157.116-4.4-3.356-.116-.116-.579-.579-.463-.694.231-.116.926.579,1.157.926" transform="translate(-45.102 -48.802)"/>
            </g>
          </g>
        </g>
        <g id="Group_502" data-name="Group 502" transform="translate(0.358 43.855)">
          <g id="Group_501" data-name="Group 501">
            <g id="Group_500" data-name="Group 500" class="cls-22">
              <path id="Path_246" data-name="Path 246" class="cls-4" d="M6.207,37.9c-1.851.116-5.091,1.041-5.554,1.736-.463.579-.579.81,0,.579a18.181,18.181,0,0,1,3.356-1.389c1.736-.463,3.124-.926,2.2-.926" transform="translate(-0.306 -37.9)"/>
            </g>
          </g>
        </g>
        <g id="Group_505" data-name="Group 505" transform="translate(63.537 29.391)">
          <g id="Group_504" data-name="Group 504">
            <g id="Group_503" data-name="Group 503" class="cls-23">
              <path id="Path_247" data-name="Path 247" class="cls-4" d="M55.14,27.926c1.851-.231,5.091-1.157,5.438-1.736.463-.579.579-.81,0-.579A15.073,15.073,0,0,1,57.223,27c-1.62.463-3.008.926-2.083.926" transform="translate(-54.909 -25.381)"/>
            </g>
          </g>
        </g>
        <g id="Group_508" data-name="Group 508" transform="translate(9.847 9.141)">
          <g id="Group_507" data-name="Group 507">
            <g id="Group_506" data-name="Group 506" class="cls-24">
              <path id="Path_248" data-name="Path 248" class="cls-4" d="M16.718,11.837C9.313,15.655,5.147,22.366,11.859,22.6c2.314.116,1.157-1.736,6.827-7.058,1.736-1.62,8.563-5.67,13.654-6.017,11.687-.579-1.62-3.009-8.678-.579-1.5.579-5.554,2.2-6.943,2.893" transform="translate(-8.503 -7.902)"/>
            </g>
          </g>
        </g>
        <g id="Group_511" data-name="Group 511" transform="translate(13.086 14.464)">
          <g id="Group_510" data-name="Group 510">
            <g id="Group_509" data-name="Group 509" class="cls-25">
              <path id="Path_249" data-name="Path 249" class="cls-4" d="M54.029,14.814c-.81-.81-1.62-1.5-2.546-2.314C55.765,17.36,56,23.377,56,30.667c0,6.827-1.041,13.191-5.207,18.051C45.7,54.85,36.557,58.669,27.878,58.669a26.431,26.431,0,0,1-16.778-5.9,26.6,26.6,0,0,0,20.018,9.141c8.563,0,17.7-3.934,22.911-9.951,4.05-4.86,5.207-11.224,5.207-18.051.116-7.753-.116-14-5.207-19.092" transform="translate(-11.331 -12.5)"/>
            </g>
          </g>
        </g>
        <line id="Line_4" data-name="Line 4" class="cls-14" y2="0.81" transform="translate(33.683 80.535)"/>
        <line id="Line_5" data-name="Line 5" class="cls-15" y2="160.839" transform="translate(33.683 89.561)"/>
      </g>
    </g>
    <path id="Path_250" data-name="Path 250" class="cls-26" d="M17,0H335V319H17A17,17,0,0,1,0,302V17A17,17,0,0,1,17,0Z" transform="translate(510 569)"/>
    <g id="Group_429" data-name="Group 429" transform="translate(551.894 450.679)">
      <g id="Body_copy" transform="translate(0.149 8.321)">
        <path id="Body_3_" class="cls-27" d="M177.643,168.891c27.594-3.254,50.582-31.566,38.961-61.865-15.762-40.99-61.4-33.468-80.543-6.93-7.86,10.945-6.55,34.693-6.55,34.693s-11.2-12.846-21.044-23.876c-15.973-17.875-20.072-53.2-11.452-69.3,13.734-25.693,24-28.946,35.285-26.876,1.1.211,4.817-.676,4.9-2.2.211-3-4.437-3.507-4.437-3.507a33.581,33.581,0,0,0-20.495,2.2A48.382,48.382,0,0,0,86.789,32.737C76.859,49.471,73.1,60.711,73.774,81.882c.549,16.649,3.423,31.355,17.41,46.61,1.056,1.183,2.2,2.324,3.423,3.507,2.747,2.662.127,1.733-1.606.592-26.157-17.241-46.23-7.86-53.709.38-17.072,18.762-15.382,31.862,0,55.78,10.226,15.889,13.311,23.284,4.479,33.172-7.564,8.494-23.284,3.169-22.9-4.057.211-3.634,5.874-6.17,7.142-2.282,1.564,4.606,5.789.887,4.141-1.859-7.818-13.1-24.636.718-14.663,13.184,7.437,9.3,32.538,9.466,43.483-6.888,15.17-22.65-25.862-50.751-8.916-65.584,16.354-14.325,37.144,3.423,43.4,6.592,5.747,2.916,14.452,5.832,2.2,14.283-20.495,14.072-13.734,39.088-13.776,58.1-.042,27.763-24.974,25.27-39.511,19.185a39.233,39.233,0,0,1,6.677-10.142c3.93-4.184,2.578-4.86,1.394-4.944-1.268-.085-7.944,4.817-9.846,7.1a32.505,32.505,0,0,0-3.761,5.7c-21.847-8.282-28.946-1.648-31.566-.634C1.3,251.969-5.924,257.758,9.2,253.406c9.973-2.874,17.579.718,26.326,5.113-2.874,11.071-.085,24.932,23.875,31.989,28.777,7.9,60.64,2.366,84.684-28.735,11.071-14.325,18.086-34.567,16.1-51.934-1.141-10.142-2.366-16.523.634-15.72,3.085.8,19.143,7.522,23.157,18.213,9.212,24.636-1.775,30.51-25.608,45.807-5.324,3.423-7.944,11.663-7.606,17.072-1.352-1.141-2.916-1.986-3.972-1.775-2.24.465-4.141,5.747-3.465,8.452.8,3.127,1.564,8.367,9.254,8.2,7.987-.169,11.579-4.9,10.818-8.2-.845-3.8-3.634-13.9,7.015-17.959,39.68-15.086,42.934-35.665,36.764-58.991C203.462,191.245,186.94,175.018,177.643,168.891ZM96.424,274.239c-23.58,7.437-41.455,2.958-49.441-3.55a11.887,11.887,0,0,1-4.648-8.747c8.705,4.057,19.058,7.606,33.848,6.465,32.116-2.535,30.552-34.1,29.876-53.963-.634-18.044,9.931-21.382,16.269-23.115,13.438-3.676,13.48,15.213,13.565,23.284C136.019,229.319,129.258,263.843,96.424,274.239Z" transform="translate(-0.206 -8.321)"/>
      </g>
      <g id="Shadow_copy" transform="translate(0.106 8.321)">
        <g id="Shadow_1_1_" transform="translate(0 0)">
          <g id="Group_372" data-name="Group 372" class="cls-28">
            <path id="Path_106" data-name="Path 106" class="cls-29" d="M406.718,388.3s-13.438,2.282-8.832,3.254a93.4,93.4,0,0,1,32.538,13.987S413.859,389.948,406.718,388.3Z" transform="translate(-229.239 -227.73)"/>
          </g>
          <g id="Group_373" data-name="Group 373" class="cls-28">
            <path id="Path_108" data-name="Path 108" class="cls-29" d="M365.33,183.671c-23.453-2.789-37.609,5.493-48.807,15.508C297.8,216,289.351,256.016,288.8,245.452c-1.859-35.877-27.51-37.44-20.748-49.779,6.339-11.579,18.636-26.5,54.893-32.031,36.3-5.493,42.384,20.03,42.384,20.03" transform="translate(-154.172 -97.559)"/>
          </g>
        </g>
        <g id="Shadow_2_1_" transform="translate(14.207 0.018)">
          <g id="Group_374" data-name="Group 374" class="cls-30">
            <path id="Path_110" data-name="Path 110" class="cls-31" d="M359.394,449.009c.507-13.311,44.582,11.2,28.608,39.511-10.776,19.1-32.285,19.565-36,28.777-7.522,18.762-8.663-1.437,3.719-13.058,5.874-5.536,18.593-14.663,16.692-29.834-1.944-15.213-13.353-16.227-13.015-25.4" transform="translate(-214.251 -260.652)"/>
          </g>
          <g id="Group_375" data-name="Group 375" class="cls-30">
            <path id="Path_112" data-name="Path 112" class="cls-31" d="M156.574,578.265c-25.059,24.214-60.132,23.242-72.936,9.973-12.889-13.353,7.057-41.117,15.931-39.891,5.578.761.254,1.479-3.592,7.691-5.324,8.621-14.114,22.354.634,26.242,22.143,5.874,61.316-6.339,61.316-6.339" transform="translate(-60.112 -320.14)"/>
          </g>
          <g id="Group_376" data-name="Group 376" class="cls-30">
            <path id="Path_114" data-name="Path 114" class="cls-31" d="M126.676,348.357c-26.115-25.566-70.021-10.522-52.906,18.678,19.016,32.369,18.551,56.752-12.846,59.2-39.257,3.043,20.622-.211,28.27-5.324s7.268-42.469,7.268-42.469-28.313-27.087-7.9-28.989,2.028,6.043,16.354,11.917c14.325,5.832,35.539.465,21.763-13.015" transform="translate(-41.792 -197.144)"/>
          </g>
          <g id="Group_377" data-name="Group 377" class="cls-30">
            <path id="Path_116" data-name="Path 116" class="cls-31" d="M194.255,437.678c-8.916-3-35.623-6.888-26.5,48.638,6.719,40.821-42.046,29.5-50.16,29.5,0,0,4.353,6.592,19.438,5.451s39-5.578,45.554-29.2,29.623-48.3,11.663-54.385" transform="translate(-82.157 -255.405)"/>
          </g>
          <g id="Group_378" data-name="Group 378" class="cls-30">
            <path id="Path_118" data-name="Path 118" class="cls-31" d="M178.768,0c-39.553,50.413-29.411,93.3-5.747,122.167,7.775,9.466.761,9.128-4.648,4.86C155.906,117.18,132.2,72.091,132.2,72.091Z" transform="translate(-90.588 -3.534)"/>
          </g>
        </g>
      </g>
      <g id="Flashlight_copy" transform="translate(143.007 273.488)">
        <path id="Hand_Overlay_1_" class="cls-27" d="M350.285,646.335c-1.056-5.324-3.676-8.2-4.437-8.705-1.352-1.141-2.916-1.986-3.972-1.775-2.24.465-4.141,5.747-3.465,8.452.8,3.127,1.564,8.367,9.254,8.2C355.652,652.336,350.708,648.448,350.285,646.335Z" transform="translate(-338.272 -635.823)"/>
      </g>
      <g id="Buttons_copy" transform="translate(44.631 55.581)">
        <g id="_x31_7_1_" transform="translate(58.03 171.241)">
          <g id="Group_379" data-name="Group 379">
            <path id="Path_120" data-name="Path 120" class="cls-32" d="M244.657,533.507c-1.31.169-2.366-3.3-1.606-6.127.8-2.916,2.747-1.817,2.831-1.648.254.761-1.944,2.028-1.733,3.761.254,1.775,1.056,3.972.507,4.015" transform="translate(-242.795 -525.39)"/>
            <path id="Path_121" data-name="Path 121" class="cls-33" d="M245.957,526.387c-1.141.338-1.31,1.9-1.521,3.465-.338,2.366-.042,4.9,1.944,4.31,1.268-.38,1.183-2.071,1.268-3.8.169-2.24.127-4.522-1.69-3.972" transform="translate(-243.674 -525.918)"/>
            <path id="Path_122" data-name="Path 122" class="cls-34" d="M249.046,533.975c-1.1-2.028-.887-5.2-.211-5.7s.972,1.1.887,2.7,0,4.226-.676,3" transform="translate(-245.959 -526.998)"/>
          </g>
          <g id="Group_381" data-name="Group 381" transform="translate(0.643 0.385)">
            <g id="Group_380" data-name="Group 380" class="cls-35">
              <path id="Path_123" data-name="Path 123" class="cls-36" d="M244.924,533.768c-1.564-1.817-.8-6.381-.3-7.268s-1.141-.254-1.733,2.916c-.8,4.184,1.859,5.409,2.493,5.282.592-.169-.127-.592-.465-.93" transform="translate(-243.41 -526.204)"/>
            </g>
          </g>
        </g>
        <g id="_x31_6_1_" transform="translate(59.116 144.279)">
          <g id="Group_382" data-name="Group 382">
            <path id="Path_125" data-name="Path 125" class="cls-32" d="M247.2,471.143c-1.564,0-2.493-4.268-1.268-7.48,1.225-3.3,3.465-1.733,3.507-1.521.254.93-2.535,2.113-2.409,4.226.127,2.071.845,4.775.169,4.775" transform="translate(-245.365 -461.587)"/>
            <path id="Path_126" data-name="Path 126" class="cls-33" d="M249.3,462.761c-1.352.211-1.733,2.071-2.155,3.888-.634,2.789-.549,5.789,1.859,5.409,1.521-.254,1.606-2.282,1.9-4.31.423-2.62.634-5.324-1.606-4.986" transform="translate(-246.197 -462.248)"/>
            <path id="Path_127" data-name="Path 127" class="cls-34" d="M252.561,471.892c-1.1-2.578-.549-6.3.3-6.8s1.056,1.437.8,3.338c-.254,1.944-.423,5.029-1.1,3.465" transform="translate(-249.166 -463.562)"/>
          </g>
          <g id="Group_384" data-name="Group 384" transform="translate(0.609 0.481)">
            <g id="Group_383" data-name="Group 383" class="cls-37">
              <path id="Path_128" data-name="Path 128" class="cls-36" d="M247.4,471.373c-1.69-2.409-.3-7.691.38-8.663s-1.31-.465-2.366,3.212c-1.395,4.86,1.69,6.719,2.409,6.634.761-.127-.085-.718-.423-1.183" transform="translate(-245.795 -462.467)"/>
            </g>
          </g>
        </g>
        <g id="_x31_5_1_" transform="translate(0 215.911)">
          <g id="Group_385" data-name="Group 385" transform="translate(0 0.005)">
            <path id="Path_130" data-name="Path 130" class="cls-32" d="M112.751,636.986c-.592,1.521-4.31,1.057-6.339-1.1-2.113-2.24-.042-3.888.169-3.888.8.042.676,3.085,2.366,3.634,1.69.592,4.057.718,3.8,1.352" transform="translate(-105.47 -631.625)"/>
            <path id="Path_131" data-name="Path 131" class="cls-33" d="M107.109,632.459c-.38,1.394.93,2.324,2.2,3.254,1.9,1.479,4.31,2.324,4.944-.127.423-1.564-1.183-2.24-2.62-3.169-1.9-1.183-3.93-2.24-4.522.042" transform="translate(-106.378 -631.112)"/>
            <path id="Path_132" data-name="Path 132" class="cls-34" d="M114.793,635.223c-2.451.254-5.113-1.395-5.2-2.409-.085-.972,1.521-.592,2.916.254,1.395.887,3.761,1.986,2.282,2.155" transform="translate(-107.851 -631.763)"/>
          </g>
          <g id="Group_387" data-name="Group 387" transform="translate(0.664)">
            <g id="Group_386" data-name="Group 386" class="cls-38">
              <path id="Path_133" data-name="Path 133" class="cls-36" d="M113.18,638.31c-2.535.887-6.085-2.071-6.592-3.043s-.887,1.141,1.564,3.3c3.254,2.831,5.874.465,6.085-.3.254-.761-.549-.127-1.056.042" transform="translate(-106.563 -633.366)"/>
            </g>
          </g>
        </g>
        <g id="_x31_4_1_" transform="translate(39.781 219.065)">
          <g id="Group_388" data-name="Group 388">
            <path id="Path_135" data-name="Path 135" class="cls-32" d="M206.452,641.947c.718,1.226-1.564,3.592-4.184,3.845-2.7.254-2.747-2.071-2.62-2.2.507-.549,2.535,1.183,3.8.338,1.31-.93,2.7-2.535,3-1.986" transform="translate(-199.611 -640.453)"/>
            <path id="Path_136" data-name="Path 136" class="cls-33" d="M200.223,642.425c.761,1.014,2.155.592,3.465.253,2.071-.549,3.93-1.775,2.578-3.507-.887-1.141-2.2-.423-3.634.127-1.859.676-3.676,1.521-2.409,3.127" transform="translate(-199.72 -638.564)"/>
            <path id="Path_137" data-name="Path 137" class="cls-34" d="M205.876,639.5c-1.141,1.859-3.761,2.789-4.479,2.324s.423-1.394,1.775-1.9c1.31-.507,3.381-1.564,2.7-.423" transform="translate(-200.514 -638.811)"/>
          </g>
          <g id="Group_390" data-name="Group 390" transform="translate(0.08 0.054)">
            <g id="Group_389" data-name="Group 389" class="cls-39">
              <path id="Path_138" data-name="Path 138" class="cls-36" d="M206.886,640.195c-.718,2.24-4.733,3.127-5.7,2.958-.93-.169.3,1.225,3.127.676,3.719-.718,3.507-3.845,3.085-4.437-.338-.507-.338.38-.507.8" transform="translate(-200.421 -639.008)"/>
            </g>
          </g>
        </g>
        <g id="_x31_3_1_" transform="translate(17.1 221.51)">
          <g id="Group_391" data-name="Group 391">
            <path id="Path_140" data-name="Path 140" class="cls-32" d="M150.823,647.094c0,.972-2.155,1.606-3.8.887-1.69-.761-.93-2.155-.8-2.2.465-.169,1.1,1.564,2.155,1.479,1.1-.127,2.451-.592,2.451-.169" transform="translate(-145.937 -645.171)"/>
            <path id="Path_141" data-name="Path 141" class="cls-33" d="M146.57,645.553c.127.845,1.1,1.1,1.986,1.31,1.437.38,2.958.254,2.747-1.225-.127-.972-1.183-.972-2.24-1.141-1.352-.254-2.7-.338-2.493,1.056" transform="translate(-146.29 -644.348)"/>
            <path id="Path_142" data-name="Path 142" class="cls-34" d="M151.194,645.514c-1.31.718-3.212.423-3.465-.127-.3-.549.718-.676,1.69-.549.972.211,2.578.254,1.775.676" transform="translate(-146.941 -644.605)"/>
          </g>
          <g id="Group_393" data-name="Group 393" transform="translate(0.251 0.018)">
            <g id="Group_392" data-name="Group 392" class="cls-40">
              <path id="Path_143" data-name="Path 143" class="cls-36" d="M150.994,647.668c-1.183,1.1-3.888.3-4.395-.127s-.211.845,1.648,1.479c2.493.8,3.381-1.141,3.338-1.606-.085-.507-.38.042-.592.254" transform="translate(-146.443 -646.016)"/>
            </g>
          </g>
        </g>
        <g id="_x31_2_1_" transform="translate(139.312 160.483)">
          <g id="Group_394" data-name="Group 394">
            <path id="Path_145" data-name="Path 145" class="cls-32" d="M439.21,500.144c1.479-.718,3.888,2.071,3.972,5.071.042,3.043-2.578,2.916-2.747,2.747-.549-.592,1.564-2.747.718-4.268-.887-1.564-2.578-3.254-1.944-3.55" transform="translate(-437.412 -499.989)"/>
            <path id="Path_146" data-name="Path 146" class="cls-33" d="M439.056,507.483c1.225-.8.845-2.366.592-3.888-.423-2.366-1.648-4.606-3.719-3.254-1.352.887-.634,2.451-.211,4.141.592,2.155,1.395,4.268,3.338,3" transform="translate(-435.145 -499.933)"/>
            <path id="Path_147" data-name="Path 147" class="cls-34" d="M436.2,503.861c1.986,1.437,2.831,4.479,2.2,5.282-.592.761-1.521-.592-1.986-2.155-.423-1.564-1.437-3.972-.211-3.127" transform="translate(-435.417 -502.1)"/>
          </g>
          <g id="Group_396" data-name="Group 396" transform="translate(0 0.021)">
            <g id="Group_395" data-name="Group 395" class="cls-41">
              <path id="Path_148" data-name="Path 148" class="cls-36" d="M437.268,499.807c2.451,1.014,3.085,5.663,2.831,6.677-.254,1.056,1.394-.254,1.056-3.507-.507-4.268-4.057-4.268-4.733-3.888-.634.423.38.507.845.718" transform="translate(-435.766 -499.376)"/>
            </g>
          </g>
        </g>
        <g id="_x31_1_1_" transform="translate(129.244 186.03)">
          <g id="Group_397" data-name="Group 397">
            <path id="Path_150" data-name="Path 150" class="cls-32" d="M416.912,561.961c1.225.718.338,3.845-1.775,5.324-2.2,1.521-3.381-.507-3.338-.676.169-.718,2.747-.169,3.465-1.521s1.141-3.423,1.648-3.127" transform="translate(-411.595 -561.279)"/>
            <path id="Path_151" data-name="Path 151" class="cls-33" d="M412.283,566.224c1.141.507,2.155-.507,3.127-1.437,1.521-1.479,2.578-3.423.549-4.268-1.31-.549-2.113.718-3.085,1.859-1.268,1.437-2.451,3.043-.592,3.845" transform="translate(-411.318 -560.387)"/>
            <path id="Path_152" data-name="Path 152" class="cls-34" d="M415.675,561.524c-.085,2.155-1.9,4.226-2.747,4.141s-.3-1.395.634-2.493c.887-1.014,2.155-2.916,2.113-1.648" transform="translate(-412.006 -560.8)"/>
          </g>
          <g id="Group_399" data-name="Group 399" transform="translate(0 0.004)">
            <g id="Group_398" data-name="Group 398" class="cls-42">
              <path id="Path_153" data-name="Path 153" class="cls-36" d="M417.983,560.506c.465,2.282-2.62,4.986-3.507,5.282s.845.93,3.043-.93c2.873-2.409,1.183-5.029.549-5.324-.592-.254-.169.549-.085.972" transform="translate(-413.005 -559.871)"/>
            </g>
          </g>
        </g>
        <g id="_x31_0_1_" transform="translate(140.832 177.287)">
          <g id="Group_400" data-name="Group 400">
            <path id="Path_155" data-name="Path 155" class="cls-32" d="M441.851,540.3c.972.169,1.183,2.409.169,3.888-1.056,1.521-2.324.507-2.324.38-.085-.507,1.733-.8,1.859-1.859s-.085-2.493.3-2.409" transform="translate(-439.291 -540.04)"/>
            <path id="Path_156" data-name="Path 156" class="cls-33" d="M439.739,544.347c.887.042,1.268-.845,1.69-1.733.634-1.31.845-2.831-.718-2.916-.972-.042-1.183.972-1.564,1.986-.465,1.268-.8,2.62.592,2.662" transform="translate(-438.742 -539.697)"/>
            <path id="Path_157" data-name="Path 157" class="cls-34" d="M440.636,540.968c.465,1.437-.211,3.212-.761,3.381-.592.169-.549-.845-.211-1.775.3-.887.676-2.451.972-1.606" transform="translate(-439.132 -540.291)"/>
          </g>
          <g id="Group_402" data-name="Group 402" transform="translate(0 0.001)">
            <g id="Group_401" data-name="Group 401" class="cls-43">
              <path id="Path_158" data-name="Path 158" class="cls-36" d="M442.718,539.53c.845,1.395-.465,3.888-.972,4.31s.8.38,1.733-1.352c1.268-2.282-.465-3.55-.93-3.592s0,.38.169.634" transform="translate(-440.411 -539.234)"/>
            </g>
          </g>
        </g>
        <g id="_x39__1_" transform="translate(39.868 98.04)">
          <g id="Group_403" data-name="Group 403">
            <path id="Path_160" data-name="Path 160" class="cls-32" d="M201.082,353.193c.507-1.564,4.226-1.352,6.381.676,2.24,2.071.3,3.888.085,3.888-.845,0-.887-3.043-2.578-3.465-1.733-.465-4.1-.465-3.888-1.1" transform="translate(-200.539 -352.164)"/>
            <path id="Path_161" data-name="Path 161" class="cls-33" d="M207.162,357.165c.254-1.394-1.1-2.282-2.409-3.127-2.028-1.352-4.437-2.028-4.9.423-.3,1.564,1.31,2.155,2.831,3,1.944,1.1,4.014,1.986,4.479-.3" transform="translate(-199.816 -352.543)"/>
            <path id="Path_162" data-name="Path 162" class="cls-34" d="M201.574,358.9c2.409-.423,5.2,1.1,5.324,2.071s-1.479.676-2.916-.085-3.888-1.733-2.409-1.986" transform="translate(-200.566 -356.012)"/>
          </g>
          <g id="Group_405" data-name="Group 405" transform="translate(0 0.269)">
            <g id="Group_404" data-name="Group 404" class="cls-44">
              <path id="Path_163" data-name="Path 163" class="cls-36" d="M199.666,353.166c2.451-1.056,6.212,1.69,6.761,2.62s.8-1.183-1.775-3.169c-3.423-2.62-5.916-.085-6.085.676s.592.085,1.1-.127" transform="translate(-199.081 -352.025)"/>
            </g>
          </g>
        </g>
        <g id="_x38__1_" transform="translate(0.872 104.785)">
          <g id="Group_406" data-name="Group 406">
            <path id="Path_165" data-name="Path 165" class="cls-32" d="M111.28,377.792c-1.859.549-4.184-3.212-3.676-6.761.507-3.634,3.634-2.916,3.761-2.7.549.8-2.409,2.916-1.648,4.9.718,1.986,2.366,4.31,1.564,4.564" transform="translate(-107.533 -368.126)"/>
            <path id="Path_166" data-name="Path 166" class="cls-33" d="M111.813,368.929c-1.564.718-1.479,2.62-1.437,4.479.042,2.916,1.056,5.747,3.8,4.522,1.775-.761,1.225-2.747,1.014-4.817-.3-2.662-.845-5.324-3.381-4.184" transform="translate(-109.165 -368.433)"/>
            <path id="Path_167" data-name="Path 167" class="cls-34" d="M117.207,377.568c-2.071-2.113-2.493-5.832-1.606-6.634s1.69,1.014,1.9,2.916c.254,1.9.972,4.944-.3,3.719" transform="translate(-111.938 -369.635)"/>
          </g>
          <g id="Group_408" data-name="Group 408" transform="translate(1.195 0.2)">
            <g id="Group_407" data-name="Group 407" class="cls-45">
              <path id="Path_168" data-name="Path 168" class="cls-36" d="M111.857,378.053c-2.7-1.69-2.578-7.268-2.071-8.452s-1.733,0-1.9,3.93c-.254,5.155,3.972,5.832,4.817,5.493.887-.338-.3-.634-.845-.972" transform="translate(-108.924 -368.925)"/>
            </g>
          </g>
        </g>
        <g id="_x37__1_" transform="translate(12.73 134.891)">
          <g id="Group_409" data-name="Group 409">
            <path id="Path_170" data-name="Path 170" class="cls-32" d="M139.273,447.328c-1.521.634-3.761-2.324-3.676-5.282.127-3.043,2.747-2.747,2.874-2.578.549.634-1.733,2.662-.972,4.226.845,1.606,2.409,3.381,1.775,3.634" transform="translate(-135.595 -439.371)"/>
            <path id="Path_171" data-name="Path 171" class="cls-33" d="M138.965,440.068c-1.268.718-1.014,2.324-.8,3.845.3,2.409,1.352,4.691,3.55,3.423,1.395-.8.8-2.409.423-4.1-.465-2.155-1.141-4.31-3.169-3.169" transform="translate(-136.977 -439.591)"/>
            <path id="Path_172" data-name="Path 172" class="cls-34" d="M144.052,446.88c-1.9-1.564-2.578-4.648-1.9-5.367.634-.761,1.479.676,1.859,2.282.338,1.564,1.183,4.057.042,3.085" transform="translate(-139.233 -440.487)"/>
          </g>
          <g id="Group_411" data-name="Group 411" transform="translate(1.012 0.139)">
            <g id="Group_410" data-name="Group 410" class="cls-46">
              <path id="Path_173" data-name="Path 173" class="cls-36" d="M139.952,447.764c-2.409-1.183-2.789-5.832-2.451-6.846s-1.437.169-1.225,3.423c.254,4.31,3.8,4.522,4.479,4.141s-.3-.507-.8-.718" transform="translate(-136.99 -440.2)"/>
            </g>
          </g>
        </g>
        <g id="_x36__1_" transform="translate(15.252 159.038)">
          <g id="Group_412" data-name="Group 412" transform="translate(0.012)">
            <path id="Path_175" data-name="Path 175" class="cls-32" d="M142.355,502.424c-1.225-.465-.972-3.423.718-5.113,1.733-1.733,3.127-.127,3.127.042-.042.676-2.493.592-2.874,1.986-.38,1.352-.465,3.254-.972,3.085" transform="translate(-141.591 -496.513)"/>
            <path id="Path_176" data-name="Path 176" class="cls-33" d="M145.813,497.748c-1.141-.254-1.859.8-2.578,1.817-1.141,1.564-1.775,3.507.211,3.972,1.268.3,1.775-.972,2.493-2.2.887-1.521,1.69-3.169-.127-3.592" transform="translate(-141.921 -497.204)"/>
            <path id="Path_177" data-name="Path 177" class="cls-34" d="M146.955,503.92c-.254-1.944,1.014-4.141,1.817-4.226s.507,1.225-.169,2.366c-.634,1.141-1.479,3.043-1.648,1.859" transform="translate(-144.669 -498.348)"/>
          </g>
          <g id="Group_414" data-name="Group 414" transform="translate(0 0.459)">
            <g id="Group_413" data-name="Group 413" class="cls-47">
              <path id="Path_178" data-name="Path 178" class="cls-36" d="M141.8,502.667c-.8-1.986,1.564-4.944,2.324-5.367s-.93-.676-2.62,1.352c-2.2,2.662-.254,4.733.38,4.9.592.169.085-.465-.085-.887" transform="translate(-140.942 -497.258)"/>
            </g>
          </g>
        </g>
        <g id="_x35__1_" transform="translate(17.634 89.108)">
          <g id="Group_415" data-name="Group 415" transform="translate(0.085)">
            <path id="Path_180" data-name="Path 180" class="cls-32" d="M148.6,333.213c.254-2.324,5.493-3.085,9.128-.845,3.719,2.282,1.479,5.324,1.183,5.409-1.141.211-2.071-4.014-4.564-4.141-2.535-.169-5.874.549-5.747-.423" transform="translate(-148.088 -331.027)"/>
            <path id="Path_181" data-name="Path 181" class="cls-33" d="M158.387,337.361c0-2.071-2.155-2.831-4.226-3.676-3.169-1.31-6.761-1.564-6.761,1.986.042,2.282,2.451,2.662,4.817,3.381,3.043.93,6.212,1.606,6.17-1.69" transform="translate(-147.4 -332.048)"/>
            <path id="Path_182" data-name="Path 182" class="cls-34" d="M150.55,341.4c3.254-1.268,7.564.042,8.029,1.395.465,1.31-1.9,1.352-4.1.718-2.2-.718-5.874-1.352-3.93-2.113" transform="translate(-148.902 -336.718)"/>
          </g>
          <g id="Group_417" data-name="Group 417" transform="translate(0 0.707)">
            <g id="Group_416" data-name="Group 416" class="cls-48">
              <path id="Path_183" data-name="Path 183" class="cls-36" d="M146.677,333.291c3.127-2.155,9.128.634,10.184,1.733s.8-1.9-3.381-3.93c-5.536-2.7-8.24,1.564-8.282,2.662-.042,1.141.845-.042,1.479-.465" transform="translate(-146.043 -331.262)"/>
            </g>
          </g>
        </g>
        <g id="_x34__1_" transform="translate(35.359 56.352)">
          <g id="Group_418" data-name="Group 418">
            <path id="Path_185" data-name="Path 185" class="cls-32" d="M193.456,254.014c1.733-1.69,6.381,1.1,7.86,5.24,1.479,4.226-2.282,5.24-2.535,5.113-1.056-.592.93-4.564-.972-6.3-1.944-1.775-5.071-3.381-4.353-4.057" transform="translate(-191.574 -253.513)"/>
            <path id="Path_186" data-name="Path 186" class="cls-33" d="M197.409,263.377c1.31-1.648.127-3.676-.972-5.7-1.69-3.127-4.395-5.663-6.719-2.789-1.479,1.859.211,3.719,1.648,5.832,1.817,2.747,3.93,5.324,6.043,2.662" transform="translate(-189.146 -253.578)"/>
            <path id="Path_187" data-name="Path 187" class="cls-34" d="M190.918,261.064c3.465,1.1,6,4.944,5.536,6.3-.507,1.352-2.409-.127-3.761-2.113-1.352-1.944-3.845-4.86-1.775-4.184" transform="translate(-189.712 -257.815)"/>
          </g>
          <g id="Group_420" data-name="Group 420" transform="translate(0 0.079)">
            <g id="Group_419" data-name="Group 419" class="cls-49">
              <path id="Path_188" data-name="Path 188" class="cls-36" d="M190.712,254.042c3.93.3,6.93,6.423,7.057,8.029.127,1.564,1.859-.972-.169-5.324-2.662-5.747-7.606-4.1-8.367-3.254-.718.845.718.507,1.479.549" transform="translate(-189.083 -253.07)"/>
            </g>
          </g>
        </g>
        <g id="_x33__1_" transform="translate(27.949 20.597)">
          <g id="Group_421" data-name="Group 421" transform="translate(0 0)">
            <path id="Path_190" data-name="Path 190" class="cls-32" d="M175.392,169.286c1.479-.211,2.747,2.916,1.944,5.536-.845,2.662-3.085,1.775-3.169,1.606-.3-.676,2.155-1.9,1.859-3.507-.3-1.564-1.225-3.55-.634-3.634" transform="translate(-173.072 -169.118)"/>
            <path id="Path_191" data-name="Path 191" class="cls-33" d="M173.634,176.084c1.268-.338,1.437-1.775,1.648-3.212.3-2.2-.085-4.437-2.282-3.888-1.437.38-1.268,1.944-1.352,3.507-.127,2.071-.042,4.141,1.986,3.592" transform="translate(-171.61 -168.901)"/>
            <path id="Path_192" data-name="Path 192" class="cls-34" d="M172.914,171.615c1.31,1.817,1.141,4.691.38,5.2s-1.141-.972-1.1-2.451c.085-1.479-.085-3.845.718-2.747" transform="translate(-171.947 -170.305)"/>
          </g>
          <g id="Group_423" data-name="Group 423" transform="translate(0)">
            <g id="Group_422" data-name="Group 422" class="cls-50">
              <path id="Path_193" data-name="Path 193" class="cls-36" d="M175.236,168.631c1.859,1.606,1.056,5.789.507,6.592-.549.845,1.31.211,1.9-2.7.8-3.845-2.282-4.86-2.958-4.733-.634.169.211.507.549.845" transform="translate(-173.254 -168.251)"/>
            </g>
          </g>
        </g>
        <g id="_x32__1_" transform="translate(29.556)">
          <g id="Group_424" data-name="Group 424">
            <path id="Path_195" data-name="Path 195" class="cls-32" d="M180.063,120.7c1.648.042,2.493,3.676,1.141,6.339-1.395,2.747-3.676,1.352-3.719,1.183-.211-.8,2.7-1.69,2.62-3.465-.042-1.775-.718-4.1-.042-4.057" transform="translate(-176.603 -120.47)"/>
            <path id="Path_196" data-name="Path 196" class="cls-33" d="M177.308,127.951c1.437-.127,1.859-1.69,2.324-3.169.718-2.324.676-4.86-1.817-4.606-1.606.169-1.733,1.859-2.113,3.592-.423,2.113-.718,4.395,1.606,4.183" transform="translate(-175.412 -120.158)"/>
            <path id="Path_197" data-name="Path 197" class="cls-34" d="M177.742,122.488c1.1,2.2.423,5.324-.465,5.7-.887.423-1.056-1.225-.761-2.831.338-1.606.592-4.226,1.225-2.874" transform="translate(-175.973 -121.287)"/>
          </g>
        </g>
        <g id="_x31__1_" transform="translate(28.603 40.857)">
          <g id="Group_427" data-name="Group 427" transform="translate(0 0.016)">
            <g id="Group_426" data-name="Group 426" class="cls-51">
              <path id="Path_198" data-name="Path 198" class="cls-36" d="M175.57,216.764c2.409,1.141,2.789,5.789,2.493,6.846-.3,1.014,1.437-.169,1.225-3.423-.254-4.31-3.8-4.479-4.522-4.141s.338.465.8.718" transform="translate(-173.946 -216.333)"/>
            </g>
          </g>
          <g id="Group_428" data-name="Group 428" transform="translate(0.042)">
            <path id="Path_200" data-name="Path 200" class="cls-32" d="M177.5,217.08c1.521-.634,3.8,2.282,3.676,5.24-.085,3.043-2.747,2.747-2.874,2.62-.549-.634,1.733-2.662.93-4.226-.8-1.606-2.366-3.381-1.733-3.634" transform="translate(-175.621 -216.929)"/>
            <path id="Path_201" data-name="Path 201" class="cls-33" d="M176.867,224.473c1.225-.718.972-2.324.8-3.845-.3-2.409-1.395-4.691-3.55-3.423-1.395.8-.761,2.409-.423,4.1.465,2.155,1.183,4.31,3.169,3.169" transform="translate(-173.257 -216.843)"/>
            <path id="Path_202" data-name="Path 202" class="cls-34" d="M174.229,220.621c1.9,1.564,2.578,4.606,1.944,5.367s-1.479-.676-1.859-2.24c-.338-1.606-1.225-4.057-.085-3.127" transform="translate(-173.493 -218.906)"/>
          </g>
        </g>
      </g>
      <g id="Eye_copy" transform="translate(136.622 93.248)">
        <path id="Path_203" data-name="Path 203" class="cls-52" d="M463.138,250.709c-29.58-19.312-38.539,14.241-40.99,27.89-1.31,7.437,9.254,17.579,16.016,17.2,4.014-.507-.507-8.452-.085-11.283,1.437-8.663,5.155-16.142,10.015-23.157,1.817-2.789,3.888-5.071,5.578-7.649" transform="translate(-380.255 -229.832)"/>
        <path id="Path_204" data-name="Path 204" class="cls-53" d="M482.763,295.512c-6.127,9.423-14.537,14.832-18.72,12.086s-2.958-17.621,3.169-27.045,14.917-9.762,19.1-7.057c4.183,2.789,2.62,12.635-3.55,22.016" transform="translate(-403.092 -245.52)"/>
        <path id="Path_205" data-name="Path 205" class="cls-54" d="M481.749,273s2.366,8.916-1.1,16.818-9.888,16.4-14.579,14.917,1.014,3.634,1.014,3.634,12.8.465,16.861-11.452,9.677-24.932,4.395-25.27c-5.24-.3-6.592,1.352-6.592,1.352" transform="translate(-404.613 -245.281)"/>
        <path id="Path_206" data-name="Path 206" class="cls-55" d="M477.48,256.98c10.4,5.493,6.085,21.044.3,31.989s-16.4,17.579-23.96,13.565-5.282-21.509,2.113-35.412c7.353-13.86,21.551-10.142,21.551-10.142M461.548,275.4c-4.9,10.522-8.113,18.382-3.8,21.34,4.437,3.085,12.677-2.113,16.945-10.226,4.268-8.071,6.634-20.241-1.648-22.27-3.888-.887-7.944,3.592-11.494,11.156" transform="translate(-395.907 -236.569)"/>
        <path id="Path_207" data-name="Path 207" class="cls-56" d="M485.094,311.3c-1.183,2.282-3.55,3.381-5.282,2.451-1.69-.887-2.113-3.465-.93-5.747s3.55-3.381,5.282-2.451,2.113,3.465.93,5.747" transform="translate(-412.691 -264.684)"/>
        <path id="Path_208" data-name="Path 208" class="cls-57" d="M454.507,282.576c-2.409,2.747-3.465,2.578-1.014-2.24s3.592-9.8,6.677-14.537c3.085-4.775,10.438-8.029,12.381-6.973,1.1.592-5.7,2.493-9.719,7.437" transform="translate(-397.613 -237.782)"/>
        <path id="Path_209" data-name="Path 209" class="cls-52" d="M377.733,246.823s-39.849-11.832-46.441-24.636c-5.451-10.607-2.028-12.889-2.028-12.889s-5.62-.254-6.085,6.423,9.339,19.861,25.946,27.214c16.607,7.4,25.228,10.184,25.228,10.184" transform="translate(-323.163 -209.297)"/>
        <path id="Path_210" data-name="Path 210" class="cls-57" d="M495.922,330.576c-1.395,4.31-6.17,11.156-10.564,13.058s-3.93-.972-1.944-1.268,7.1-3.3,9.635-8.452c2.493-5.155,2.874-3.338,2.874-3.338" transform="translate(-414.856 -279.147)"/>
      </g>
    </g>
  </g>
</svg>
